<svg xmlns="http://www.w3.org/2000/svg" width="400" height="248.264" viewBox="0 0 400 248.264"><g transform="translate(-4298.945 -1100.379)"><g transform="translate(4298.945 1100.379)"><g transform="translate(0.505 5.274)" opacity="0.8"><g transform="translate(349.454 30.856)"><g transform="translate(0)"><path d="M140.019,94.789a3.68,3.68,0,0,0-4.116,2.3c-1.045,2.835,1.693,6.009,5.379,4.586h0C144.46,99.325,143.076,95.351,140.019,94.789Z" transform="translate(-135.677 -94.728)" fill="#fbe9b8"/></g></g><g transform="translate(0 7.377)"><g transform="translate(0 0)"><ellipse cx="7.393" cy="7.393" rx="7.393" ry="7.393" transform="translate(2.376 16.97) rotate(-99.248)" fill="#fbe9b8"/></g></g><g transform="translate(329.872 18.4)"><g transform="translate(0 0)"><ellipse cx="7.469" cy="7.469" rx="7.469" ry="7.469" transform="matrix(-0.182, -0.983, 0.983, -0.182, 2.72, 17.408)" fill="#fbe9b8"/></g></g><g transform="translate(17.865)"><g transform="translate(0)"><path d="M610.291,54.885a4.548,4.548,0,1,0,4.548-4.548A4.548,4.548,0,0,0,610.291,54.885Z" transform="translate(-610.291 -50.337)" fill="#fbe9b8"/></g></g></g><g transform="translate(0 0)"><path d="M74.353,130.795c.006-40.631,33.836-85.153,75.94-87.843q1.109-.071,2.242-.124c60.36-2.813,64.959,70.806,119.571,79.109s96.317-33.613,161.665-6.266c58.689,24.562,74.586,162.58-97.855,168.115C197.949,288.216,74.335,252.018,74.353,130.795Z" transform="translate(-74.353 -42.75)" fill="#fbe9b8"/></g></g><g transform="translate(4298.945 1341.442)"><path d="M4696.56,1804.423H4301.331c-1.317,0-2.386-1.612-2.386-3.6s1.068-3.6,2.386-3.6H4696.56c1.317,0,2.385,1.612,2.385,3.6S4697.877,1804.423,4696.56,1804.423Z" transform="translate(-4298.945 -1797.222)" fill="#d499e2"/></g><g transform="translate(4456.125 1296.52)"><g transform="translate(1.305 1.454)"><path d="M4768.141,1710.071s13.589-17.529,0-41.535l104.011,1.142,6.795,6.859,2.352,17.911-5.487,12.956-10.193,3.429S4767.618,1710.832,4768.141,1710.071Z" transform="translate(-4768.139 -1668.535)" fill="#fff"/></g><g transform="translate(53.015 23.223)"><rect width="53.974" height="2.963" rx="0.357" fill="#c0e7fd"/></g><g transform="translate(72.864 32.111)"><rect width="34.3" height="2.963" rx="0.324" fill="#c0e7fd"/></g><g transform="translate(19.847 32.111)"><rect width="34.3" height="2.963" rx="0.324" fill="#c0e7fd"/></g><g transform="translate(26.115 13.652)"><rect width="80.875" height="2.963" rx="0.357" fill="#c0e7fd"/></g><g transform="translate(104.33 6.216)"><path d="M5075.7,1715.406s-5.75-17.34,0-32.772l11.236,9.146-4.572,16.194Z" transform="translate(-5073.145 -1682.634)" fill="#3c251d"/></g><g transform="translate(0)"><path d="M4954.983,1709.387H4764.276v-3.429h97.8c7.253,0,13.132-8.572,13.132-19.147s-5.879-19.149-13.132-19.149h-97.8v-3.429h190.708c8.553,0,15.485,10.109,15.485,22.579S4963.536,1709.387,4954.983,1709.387Z" transform="translate(-4764.276 -1664.231)" fill="#744386"/></g><g transform="translate(186.004 0.096)"><path d="M5315.625,1709.672l-.686-.09c.494-.205,8.723-5.288,8.723-21.322,0-13.305-3.417-20.485-6.174-23.744h1.959a11.082,11.082,0,0,1,4.669,1.158c2.359,5.3,4.283,12.633,4.283,22.585,0,9.156-2.7,16.066-6.115,20.995a10.833,10.833,0,0,1-2.837.417Z" transform="translate(-5314.938 -1664.516)" fill="#f9edae"/></g><g transform="translate(114.138 0.096)"><path d="M5102.864,1709.672l-.686-.09c.494-.205,8.722-5.288,8.722-21.322,0-13.305-3.417-20.485-6.174-23.744h1.96a11.079,11.079,0,0,1,4.669,1.158c2.358,5.3,4.283,12.633,4.283,22.585,0,9.156-2.7,16.066-6.115,20.995a10.833,10.833,0,0,1-2.837.417Z" transform="translate(-5102.179 -1664.516)" fill="#f9edae"/></g><g transform="translate(0)" opacity="0.19"><path d="M4879,1686.81c0,12.47-6.933,22.579-15.484,22.579h-99.242v-3.43h97.8c7.253,0,13.132-8.574,13.132-19.149s-5.879-19.149-13.132-19.149h-97.8v-3.429h99.242C4872.069,1664.231,4879,1674.34,4879,1686.81Z" transform="translate(-4764.276 -1664.231)" fill="#fff"/></g><g transform="translate(137.722 33.463)"><path d="M5214.041,1763.3h-40.958c-.594,0-1.081.71-1.081,1.576v.468c0,.866.487,1.576,1.081,1.576h40.958c.6,0,1.08-.71,1.08-1.576v-.468C5215.121,1764.007,5214.636,1763.3,5214.041,1763.3Z" transform="translate(-5172.001 -1763.297)" fill="#f9edae"/></g><g transform="translate(149.222 25.842)"><path d="M5227.7,1740.735h-20.574c-.594,0-1.081.708-1.081,1.576v.468c0,.866.487,1.576,1.081,1.576H5227.7c.6,0,1.081-.71,1.081-1.576v-.468C5228.78,1741.443,5228.295,1740.735,5227.7,1740.735Z" transform="translate(-5206.044 -1740.735)" fill="#f9edae"/></g></g><g transform="translate(4484.478 1263.194)"><g transform="translate(0.974 1.085)"><path d="M4851.1,1599.782s10.142-13.082,0-31l77.625.852,5.071,5.119,1.755,13.367-4.1,9.669-7.606,2.559S4850.708,1600.351,4851.1,1599.782Z" transform="translate(-4851.096 -1568.784)" fill="#fff"/></g><g transform="translate(39.566 17.331)"><rect width="40.282" height="2.211" rx="0.351" fill="#c0e7fd"/></g><g transform="translate(54.379 23.965)"><rect width="25.599" height="2.211" rx="0.324" fill="#c0e7fd"/></g><g transform="translate(14.812 23.965)"><rect width="25.598" height="2.211" rx="0.324" fill="#c0e7fd"/></g><g transform="translate(19.49 10.188)"><rect width="60.358" height="2.211" rx="0.351" fill="#c0e7fd"/></g><g transform="translate(77.863 4.639)"><path d="M5080.633,1603.765s-4.292-12.941,0-24.458l8.386,6.826-3.412,12.086Z" transform="translate(-5078.726 -1579.306)" fill="#3c251d"/></g><g transform="translate(0 0)"><path d="M4990.541,1599.272H4848.213v-2.559h72.992c5.414,0,9.8-6.4,9.8-14.29s-4.388-14.291-9.8-14.291h-72.992v-2.559h142.328c6.382,0,11.556,7.544,11.556,16.851S4996.923,1599.272,4990.541,1599.272Z" transform="translate(-4848.213 -1565.572)" fill="#fc8a5e"/></g><g transform="translate(138.817 0.072)"><path d="M5259.691,1599.485l-.512-.067c.368-.154,6.51-3.947,6.51-15.913,0-9.93-2.55-15.289-4.607-17.72h1.462a8.271,8.271,0,0,1,3.485.865,40.987,40.987,0,0,1,3.2,16.856,26.987,26.987,0,0,1-4.563,15.668,8.087,8.087,0,0,1-2.118.312Z" transform="translate(-5259.179 -1565.784)" fill="#f9edae"/></g><g transform="translate(85.182 0.072)"><path d="M5100.905,1599.485l-.512-.067c.368-.154,6.509-3.947,6.509-15.913,0-9.93-2.549-15.289-4.607-17.72h1.463a8.269,8.269,0,0,1,3.484.865,40.987,40.987,0,0,1,3.2,16.856,26.987,26.987,0,0,1-4.562,15.668,8.09,8.09,0,0,1-2.118.312Z" transform="translate(-5100.394 -1565.784)" fill="#f9edae"/></g><g transform="translate(0 0)" opacity="0.19"><path d="M4933.834,1582.423c0,9.307-5.174,16.851-11.556,16.851h-74.065v-2.559h72.992c5.414,0,9.8-6.4,9.8-14.292s-4.388-14.291-9.8-14.291h-72.992v-2.559h74.065C4928.661,1565.572,4933.834,1573.116,4933.834,1582.423Z" transform="translate(-4848.213 -1565.572)" fill="#fff"/></g><g transform="translate(102.784 24.974)"><path d="M5183.878,1639.506h-30.567c-.443,0-.807.53-.807,1.176v.35c0,.646.364,1.176.807,1.176h30.567c.444,0,.806-.53.806-1.176v-.35C5184.685,1640.036,5184.323,1639.506,5183.878,1639.506Z" transform="translate(-5152.504 -1639.506)" fill="#f9edae"/></g><g transform="translate(111.366 19.286)"><path d="M5194.072,1622.668h-15.355c-.443,0-.806.528-.806,1.176v.35c0,.646.363,1.176.806,1.176h15.355c.444,0,.807-.53.807-1.176v-.35C5194.878,1623.2,5194.516,1622.668,5194.072,1622.668Z" transform="translate(-5177.911 -1622.668)" fill="#f9edae"/></g></g><g transform="translate(4306.593 1124.27)"><g transform="translate(106.291 76.666)"><path d="M4693.635,1459.628a24.982,24.982,0,0,0,3.769-.288c25.009-3.787,21.136-40.187,18.871-72.976l-23.5-3.009c0,14.667.012,29.96-2.068,38.924-4.777-4.915-12.428-11.758-24.726-34.349-1.491-2.738-2.744-5.033-3.7-6.675l-26.016,15.107c.849,1.463,1.961,3.511,3.291,5.953C4656.016,1432.56,4672.582,1459.628,4693.635,1459.628Z" transform="translate(-4636.263 -1381.255)" fill="#f49d8b"/></g><g transform="translate(26.328 0)"><path d="M4444.847,1158.755c-8.038-.753-11.458,3.009-13.852,10.875s1.71,13.337-3.078,20.519-13.68,8.892-15.39,14.364.684,7.865-.684,11.627-12.312,9.576-12.312,11.969,2.052,5.472,2.052,5.472l81.05-12.311,7.523-4.788s5.472-6.839-.684-10.6-11.286-2.736-12.312-14.021,0-23.939-5.129-30.779-19.493-8.208-23.255-5.472S4444.847,1158.755,4444.847,1158.755Z" transform="translate(-4399.533 -1154.288)" fill="#12263f"/></g><g transform="translate(94.305 24.96)"><path d="M4601.11,1231.429s4.049-4.232,7.506-3.035,4,8.617.32,10.1-8.161-1.361-8.161-1.361Z" transform="translate(-4600.776 -1228.181)" fill="#f7b4a0"/></g><g transform="translate(97.689 27.31)"><path d="M4614.492,1241.97a.651.651,0,0,1-.6-.388.65.65,0,0,1,.331-.858,2.606,2.606,0,0,0,.856-.69,2.384,2.384,0,0,0,.372-2.224,2.5,2.5,0,0,0-1.031-1.681,1.8,1.8,0,0,0-.862-.184,8.1,8.1,0,0,0-2.406.518l-.015,0a.665.665,0,0,1-.192.028.651.651,0,0,1-.209-1.268,9.207,9.207,0,0,1,2.824-.589,3.053,3.053,0,0,1,1.475.341,4.251,4.251,0,0,1,1.026,5.889,3.993,3.993,0,0,1-1.31,1.045.65.65,0,0,1-.189.052A.657.657,0,0,1,4614.492,1241.97Z" transform="translate(-4610.797 -1235.139)" fill="#12263f"/></g><g transform="translate(96.59 34.245)"><path d="M4612.006,1255.77c-.137-1.034,5.653,6.342-.965,6.342s-1.819-4.882-1.819-4.882l.716.263s-.827,3.1,1.172,3.1.621-4.687.621-4.687Z" transform="translate(-4607.541 -1255.671)" fill="#edbc2c"/></g><g transform="translate(1.961 103.623)"><path d="M4367.988,1478.328l-11.727-8.622,11.711,8.645-11.711-8.645-11.71-8.645c-2.9,3.929-12.889,18.287-17.158,34.783,10.214.867,20.428,2.92,30.641,3.278A61.369,61.369,0,0,1,4367.988,1478.328Z" transform="translate(-4327.393 -1461.061)" fill="#f49d8b"/></g><g transform="translate(9.542 108.75)"><path d="M4367.03,1498.184c7.523,2.052-3.486-20.791-3.486-20.791l-8.794-1.152c-1.417,2.382-3.512,7.959-4.912,10.128C4353.076,1489.632,4360.828,1496.493,4367.03,1498.184Z" transform="translate(-4349.837 -1476.241)" fill="#12263f"/></g><g transform="translate(121.473 104.248)"><path d="M4706.188,1467.207a9.424,9.424,0,0,0,.754-1.736c-.758-.824-1.515-1.675-2.267-2.56-6.467.439-23.467,10.351-23.467,10.351s.724-1.228.73.936c2.046,2.641,4.6,8.783,7.386,11.661A53.814,53.814,0,0,0,4706.188,1467.207Z" transform="translate(-4681.209 -1462.911)" fill="#12263f"/></g><g transform="translate(17.957 165.804)"><path d="M4405.187,1645.491s-16.757,12.654-30.437,50.956h132.861s-13.166-39.157-29.068-51.3Z" transform="translate(-4374.75 -1645.149)" fill="#006e3f"/></g><g transform="translate(7.013 58.801)"><path d="M4402.993,1328.434c-16.867,2.288-28.152,8.1-33.966,12.89s-22.571,33.514-26.675,35.909c0,0,10.6,20.519,22.229,24.281l11.627,3.762,4.446-9.576s2.052,31.007,5.7,35.111c0,0,48.791,12.767,69.31,1.6,0,0,1.823-.228,4.1-5.016s2.28-27.245,2.28-27.245a25.821,25.821,0,0,0,5.814-13.68s15.49-5.791,23.1-16.959c0,0-5.891-10.742-13.187-16.9s-16.187-19.379-23.027-22.115-25.763-2.052-25.763-2.052Z" transform="translate(-4342.352 -1328.367)" fill="#f3c035"/></g><g transform="translate(67.654 43.492)"><path d="M4527.588,1283.045s1.373,10.448-.37,12.527-5.34,2.85-5.34,2.85,8.7,15.436,23.651,13.916c13.469-1.369,6.221-14.021,6.221-14.021s-5.3-.6-6.555-1.767-1.375-11.042-1.375-11.042Z" transform="translate(-4521.878 -1283.045)" fill="#f7b4a0"/></g><g transform="translate(74.612 44.054)"><path d="M4542.477,1284.709l6.434.6,8.568,1.3a54.008,54.008,0,0,0,.328,6.686A17.977,17.977,0,0,1,4542.477,1284.709Z" transform="translate(-4542.477 -1284.709)" fill="#12263f"/></g><g transform="translate(64.493 3.73)"><path d="M4545.9,1176.586c1.106,2.787.044,7.063,1.055,12.881s1.446,17.519-6.809,19.826a22.589,22.589,0,0,1-15.522-1.178,15.163,15.163,0,0,1-7.732-9.37l-3.75-13.05a15.72,15.72,0,0,1,11.1-19.637q.3-.075.6-.14C4541.67,1162.3,4545.9,1176.586,4545.9,1176.586Z" transform="translate(-4512.521 -1165.331)" fill="#f7b4a0"/></g><g transform="translate(80.555 27.412)"><path d="M4560.086,1237.234c-.081-.957.169-1.76.558-1.793s.769.717.849,1.674-.169,1.76-.557,1.793S4560.167,1238.191,4560.086,1237.234Z" transform="translate(-4560.071 -1235.44)" fill="#12263f"/></g><g transform="translate(93.29 26.026)"><path d="M4597.787,1233.13c-.08-.958.169-1.76.558-1.793s.769.717.849,1.674-.169,1.76-.558,1.793S4597.867,1234.087,4597.787,1233.13Z" transform="translate(-4597.771 -1231.336)" fill="#12263f"/></g><g transform="translate(88.128 28.706)"><path d="M4583.875,1247.065a.715.715,0,0,1-.081,0,.7.7,0,0,1-.433-1.176l0,0a5.262,5.262,0,0,0,1.22-2.566c.058-.47-.241-.742-.867-1.266a4.267,4.267,0,0,1-1.711-2.431.7.7,0,0,1,.542-.831.686.686,0,0,1,.146-.016.7.7,0,0,1,.685.558,3,3,0,0,0,1.238,1.642,2.771,2.771,0,0,1,1.358,2.517,6.506,6.506,0,0,1-1.588,3.353A.7.7,0,0,1,4583.875,1247.065Z" transform="translate(-4582.49 -1239.273)" fill="#12263f"/></g><g transform="translate(78.204 24.324)"><path d="M4553.738,1228.591a.605.605,0,0,0,.4-.169,4.371,4.371,0,0,1,3.563-.854.605.605,0,1,0,.172-1.2,5.553,5.553,0,0,0-4.577,1.182.605.605,0,0,0,.443,1.038Z" transform="translate(-4553.112 -1226.299)" fill="#12263f"/></g><g transform="translate(91.144 23.228)"><path d="M4591.846,1224.522a.6.6,0,0,0,.432-.028,4.37,4.37,0,0,1,3.645.365.605.605,0,1,0,.556-1.075,5.556,5.556,0,0,0-4.711-.387.605.605,0,0,0,.078,1.126Z" transform="translate(-4591.419 -1223.053)" fill="#12263f"/></g><g transform="translate(62.069 3.269)"><path d="M4513.183,1191.9a58.193,58.193,0,0,0,8.747-17.616,47.3,47.3,0,0,0,9.4,2.875c4.772.843,7.273-.173,9.83,3.673s1.341-2.065,1.341-2.065-2.72-20.089-25.094-13.455-6.755,29.1-6.755,29.1Z" transform="translate(-4505.345 -1163.964)" fill="#12263f"/></g><g transform="translate(81.642 37.032)"><path d="M4565.618,1263.421a8.99,8.99,0,0,1,2.08.328c.444.108.885.234,1.313.356.468.133.952.271,1.428.382.07.016.144.032.228.049.455.09.911.138,1.393.188.326.034.663.069,1,.119a2.129,2.129,0,0,1,1.489.834,1.676,1.676,0,0,1,.222,1.352,3.872,3.872,0,0,1-2.009,2.643,6.774,6.774,0,0,1-3.235.705,11.719,11.719,0,0,1-4.1-.763,4.446,4.446,0,0,1-1.881-1.268,3.513,3.513,0,0,1-.723-2.612,2.583,2.583,0,0,1,1.026-1.8A2.945,2.945,0,0,1,4565.618,1263.421Zm3.907,5.956c1.678,0,3.781-.446,4.27-2.572a.688.688,0,0,0-.073-.565,1.179,1.179,0,0,0-.81-.408c-.315-.047-.642-.081-.958-.114-.483-.051-.983-.1-1.483-.2-.1-.019-.18-.037-.26-.056-.5-.116-1-.258-1.475-.394-.418-.119-.85-.242-1.274-.346a8.088,8.088,0,0,0-1.843-.3,1.988,1.988,0,0,0-1.194.325,1.593,1.593,0,0,0-.617,1.117,2.515,2.515,0,0,0,.5,1.847,3.484,3.484,0,0,0,1.473.972A10.832,10.832,0,0,0,4569.524,1269.377Z" transform="translate(-4563.288 -1263.921)" fill="#12263f"/></g><g transform="translate(61.137 27.694)"><path d="M4512.939,1239.525s-4.049-4.232-7.506-3.035-4,8.617-.32,10.1,8.16-1.361,8.16-1.361Z" transform="translate(-4502.585 -1236.277)" fill="#f7b4a0"/></g><g transform="translate(62.867 30.045)"><path d="M4509.583,1250.066a.649.649,0,0,1-.26-.054l-.01,0a3.994,3.994,0,0,1-1.3-1.041,4.251,4.251,0,0,1,1.026-5.889,3.05,3.05,0,0,1,1.475-.341,9.2,9.2,0,0,1,2.823.589.651.651,0,0,1-.208,1.268.665.665,0,0,1-.192-.029l-.014,0a8.1,8.1,0,0,0-2.407-.518,1.8,1.8,0,0,0-.862.184,2.492,2.492,0,0,0-1.03,1.681,2.381,2.381,0,0,0,.372,2.225,2.6,2.6,0,0,0,.856.689.651.651,0,0,1-.266,1.246Z" transform="translate(-4507.705 -1243.235)" fill="#12263f"/></g><g transform="translate(48.394 159.82)"><path d="M4538.9,1628.8a225.4,225.4,0,0,1-72.843-1.368l-1.2,6.327s52.495,11.457,74.04.513Z" transform="translate(-4464.858 -1627.431)" fill="#3c251d"/></g><g transform="translate(124.193 95.119)"><path d="M4697.588,1458.4a.738.738,0,0,1-.737-.737,32.087,32.087,0,0,0-3.868-15.658,22.07,22.07,0,0,0-3.969-5.329l-.01-.009a.743.743,0,0,1-.068-1.029.724.724,0,0,1,.556-.257.758.758,0,0,1,.478.171l.017.015c.341.305,8.338,7.642,8.338,22.1A.738.738,0,0,1,4697.588,1458.4Z" transform="translate(-4689.26 -1435.885)" fill="#12263f"/></g><g transform="translate(45.081 107.886)"><path d="M4455.286,1492.668a.727.727,0,0,1-.245-.043.742.742,0,0,1-.457-.922l0-.01c2.892-8.458,6.906-17.647,7.091-18.065a.736.736,0,0,1,.966-.386l0,0a.739.739,0,0,1,.379.968l-.015.036c-.7,1.611-4.337,10.044-7.03,17.922A.739.739,0,0,1,4455.286,1492.668Z" transform="translate(-4455.049 -1473.683)" fill="#12263f"/></g><g transform="translate(49.185 111.079)"><path d="M4467.436,1488.211a.738.738,0,0,1-.473-1.3l.006-.005,5.017-4.1a.737.737,0,0,1,.941,1.135l-.007.006-5.029,4.113A.743.743,0,0,1,4467.436,1488.211Z" transform="translate(-4467.2 -1483.134)" fill="#12263f"/></g><g transform="translate(63.32 119.057)"><path d="M4523.532,1514.535a40.224,40.224,0,0,1-14.518-2.981.742.742,0,0,1-.421-.95l.005-.013a.738.738,0,0,1,.684-.459.729.729,0,0,1,.271.052,38.751,38.751,0,0,0,13.977,2.876,25.008,25.008,0,0,0,12.68-3.249,17.139,17.139,0,0,0,4.2-3.291.74.74,0,0,1,.564-.265.749.749,0,0,1,.453.154l.021.016a.738.738,0,0,1,.106,1.024l-.009.011a18.224,18.224,0,0,1-4.539,3.594,24.662,24.662,0,0,1-5.6,2.4A28.212,28.212,0,0,1,4523.532,1514.535Z" transform="translate(-4509.045 -1506.755)" fill="#12263f"/></g><g transform="translate(75.857 66.619)"><path d="M4562.285,1361.95c-7.729,0-15.951-5.482-16.3-5.715a.741.741,0,0,1-.206-1.013l.007-.011a.74.74,0,0,1,.611-.321.726.726,0,0,1,.409.125c.379.25,8.343,5.446,15.546,5.446a11.217,11.217,0,0,0,4.713-.945c3.137-1.44,5.037-3.1,5.646-4.937a3.442,3.442,0,0,0-.058-2.479.737.737,0,0,1,.646-1.088.741.741,0,0,1,.643.378l0,.006a4.741,4.741,0,0,1,.171,3.632c-.741,2.243-2.906,4.2-6.437,5.826A12.85,12.85,0,0,1,4562.285,1361.95Z" transform="translate(-4546.164 -1351.512)" fill="#12263f"/></g><g transform="translate(91.754 161.4)"><path d="M4593.225,1642.329v-8.664a1.553,1.553,0,0,1,1.555-1.555h14.591a1.554,1.554,0,0,1,1.555,1.555v8.664a1.554,1.554,0,0,1-1.555,1.555H4594.78A1.554,1.554,0,0,1,4593.225,1642.329Zm14.591-7.109h-11.481v5.554h11.481Z" transform="translate(-4593.225 -1632.11)" fill="#edbc2c"/></g><g transform="translate(71.991 162.384)"><path d="M4539.732,1643.688l-.228-8.436-4.788-.228v9.348Z" transform="translate(-4534.717 -1635.024)" fill="#47486c"/></g><g transform="translate(52.612 160.219)"><path d="M4481.791,1636.82l.912-7.41-4.218-.8-1.14,7.638Z" transform="translate(-4477.345 -1628.612)" fill="#de5a4c"/></g><g transform="translate(0 138.406)"><path d="M4397.614,1565.781c-22.663,7.846-36.274,11.866-44.348,9.595-.5-2.823.071-4.5.924-8.063-10.213-.357-20.427-2.411-30.641-3.277-2.479,9.585-3.034,19.889.87,29.293,5.163,12.434,11.751,13.4,27.329,13.4,19.242,0,45.591-11.4,56.75-18.917Z" transform="translate(-4321.589 -1564.035)" fill="#f49d8b"/></g><g transform="translate(91.199 160.41)"><path d="M4591.974,1630.982a.393.393,0,0,1-.083-.778l4.678-1.018a.393.393,0,0,1,.166.769l-4.678,1.018A.392.392,0,0,1,4591.974,1630.982Z" transform="translate(-4591.581 -1629.178)" fill="#edbc2c"/></g><g transform="translate(96.549 139.099)"><path d="M4608.052,1580.208a.512.512,0,0,1-.231-.055c-.535-.275-.5-1.243-.1-5.624a75.506,75.506,0,0,0,.455-8.037.4.4,0,0,1,.385-.4h.009a.394.394,0,0,1,.394.383,77.115,77.115,0,0,1-.458,8.131c-.16,1.733-.335,3.654-.3,4.52,1.093-1.55,3.334-7.059,3.394-9.778a.4.4,0,0,1,.393-.384h.01a.393.393,0,0,1,.384.4c-.064,2.908-2.672,9.586-3.94,10.682A.6.6,0,0,1,4608.052,1580.208Z" transform="translate(-4607.419 -1566.087)" fill="#3c251d"/></g><g transform="translate(96.156 140.92)"><path d="M4613.881,1571.9h-.01l-6.945.808a.218.218,0,0,1-.209-.1l-.429-.72a.215.215,0,0,1,.37-.221l.357.6,6.8-.79a.215.215,0,0,1,.064.425Z" transform="translate(-4606.257 -1571.478)" fill="#3c251d"/></g><g transform="translate(88.239 146.684)"><g transform="translate(0 0.212)"><path d="M4585.41,1590.719a.181.181,0,0,1-.026.112.178.178,0,0,1-.245.058l-2.235-1.386a.179.179,0,0,1,.188-.3l2.235,1.386A.179.179,0,0,1,4585.41,1590.719Z" transform="translate(-4582.819 -1589.172)" fill="#3c251d"/></g><g transform="translate(0.164)"><path d="M4583.3,1590.551a.173.173,0,0,0,.048.1.178.178,0,0,0,.252.007l1.907-1.81a.179.179,0,0,0-.245-.26l-1.907,1.811A.177.177,0,0,0,4583.3,1590.551Z" transform="translate(-4583.304 -1588.544)" fill="#3c251d"/></g></g><g transform="translate(88.834 153.558)"><g transform="translate(0 0.212)"><path d="M4587.172,1611.067a.175.175,0,0,1-.026.112.178.178,0,0,1-.245.058l-2.235-1.386a.178.178,0,0,1,.188-.3l2.235,1.386A.179.179,0,0,1,4587.172,1611.067Z" transform="translate(-4584.581 -1609.521)" fill="#3c251d"/></g><g transform="translate(0.164)"><path d="M4585.066,1610.9a.175.175,0,0,0,.049.1.178.178,0,0,0,.252.007l1.907-1.81a.179.179,0,0,0-.246-.259l-1.907,1.81A.18.18,0,0,0,4585.066,1610.9Z" transform="translate(-4585.065 -1608.893)" fill="#3c251d"/></g></g><g transform="translate(65.763 120.084)"><g transform="translate(3.235)"><path d="M4525.856,1533.362c4.3-4.393,6.621-6.986,7.5-8.642s9.293-9.029,12.356-12.726c2.837-3.423,7.108-3.036,6.347,2.459-.712,5.132-9.986,10.88-8.442,10.8,4.766-.252,6.508-.292,6.508-.292l.35,20.761-2.661,4.006-10.144.3Z" transform="translate(-4525.856 -1509.794)" fill="#f49d8b"/></g><g transform="translate(15.872 35.96)"><path d="M4587.608,1622.505a3.216,3.216,0,0,1-1.486.35l-19.613-.094a3.254,3.254,0,1,1,.032-6.508l19.614.094a3.254,3.254,0,0,1,1.453,6.158Z" transform="translate(-4563.268 -1616.253)" fill="#f49d8b"/></g><g transform="translate(22.073 12.67)"><path d="M4608.76,1555.816a4.378,4.378,0,0,1-.687.14l-19.61,2.326a4.343,4.343,0,0,1-4.823-3.8c-.282-2.384-6.244-4.64,3.8-4.823l19.609-2.326a4.341,4.341,0,0,1,1.712,8.482Z" transform="translate(-4581.628 -1547.304)" fill="#f49d8b"/></g><g transform="translate(0 19.578)"><path d="M4516.28,1574.448s7.832-6.755,10.98-6.692c8.937.178,12.645,1.573,12.645,1.573s9.944,18.315,5.664,19.855c-4.027,1.449-26.667,3.808-26.667,3.808Z" transform="translate(-4516.28 -1567.755)" fill="#f49d8b"/></g><g transform="translate(22.942 18.946)"><g transform="translate(0 0.212)"><path d="M4586.613,1568.753a.675.675,0,0,1-.357-.1l-2.234-1.385a.67.67,0,0,1-.3-.419.684.684,0,0,1,.083-.516.678.678,0,0,1,.932-.22l2.237,1.387a.679.679,0,0,1,.318.508v.006a.684.684,0,0,1-.1.422A.673.673,0,0,1,4586.613,1568.753Z" transform="translate(-4584.2 -1566.51)" fill="#12263f"/></g><g transform="translate(0.164)"><path d="M4584.863,1568.55h0a.682.682,0,0,1-.49-.209.678.678,0,0,1,.025-.964l1.905-1.808a.678.678,0,1,1,.93.988l-1.9,1.807A.675.675,0,0,1,4584.863,1568.55Z" transform="translate(-4584.685 -1565.882)" fill="#12263f"/></g></g><g transform="translate(44.983 15.256)"><path d="M4650.116,1560.506a.674.674,0,0,1-.638-.458c-.043-.126-1.084-3.191-.117-4.689l.016-.024a.681.681,0,0,1,.463-.28l4.27-.59a.7.7,0,0,1,.09-.006.668.668,0,0,1,.52.247h0a5.621,5.621,0,0,1,.886,1.552,3.159,3.159,0,0,1-.453,3.274.678.678,0,0,1-.521.245.674.674,0,0,1-.52-1.1l0-.005c.829-.995.189-2.227-.214-2.816l-3.522.486a7.025,7.025,0,0,0,.373,3.269l0,.009a.675.675,0,0,1-.424.853l-.03.009A.679.679,0,0,1,4650.116,1560.506Z" transform="translate(-4649.45 -1554.958)" fill="#12263f"/></g><g transform="translate(21.437 21.172)"><path d="M4584.4,1582.092c.114,0,.228,0,.343-.011l14.674-.989a4.439,4.439,0,0,0,4.313-4.617,4.587,4.587,0,0,0-4.991-3.991l-14.673.989a4.44,4.44,0,0,0-4.313,4.618A4.534,4.534,0,0,0,4584.4,1582.092Z" transform="translate(-4579.743 -1572.474)" fill="#f49d8b"/></g><g transform="translate(21.437 27.877)"><path d="M4584.4,1601.942c.114,0,.228,0,.343-.011l14.674-.989a4.44,4.44,0,0,0,4.313-4.617,4.587,4.587,0,0,0-4.991-3.991l-14.673.989a4.44,4.44,0,0,0-4.313,4.618A4.534,4.534,0,0,0,4584.4,1601.942Z" transform="translate(-4579.743 -1592.325)" fill="#f49d8b"/></g><g transform="translate(31.307 21.711)"><path d="M4609.2,1576.013a.737.737,0,0,1-.005-1.474c.314-.01,6.605-.528,11.9-.968l.027,0h.027a.761.761,0,0,1,.739.668v.01a.74.74,0,0,1-.675.791C4621.1,1575.048,4609.546,1576.013,4609.2,1576.013Z" transform="translate(-4608.963 -1574.069)" fill="#12263f"/></g><g transform="translate(35.095 28.708)"><path d="M4620.417,1596.436a.737.737,0,0,1-.734-.67v-.013a.74.74,0,0,1,.676-.788l8.5-.683.044,0a.746.746,0,0,1,.7.668v.009a.739.739,0,0,1-.676.789l-8.464.681h-.05Z" transform="translate(-4620.18 -1594.784)" fill="#12263f"/></g><g transform="translate(34.124 36.384)"><path d="M4623.662,1618.482h-6.121a.737.737,0,0,1,0-1.474h6.121a.737.737,0,1,1,0,1.474Z" transform="translate(-4617.305 -1617.508)" fill="#12263f"/></g><g transform="translate(23.234 25.651)"><g transform="translate(0 0.212)"><path d="M4587.477,1588.6a.677.677,0,0,1-.355-.1l-2.237-1.387a.669.669,0,0,1-.3-.42.681.681,0,0,1,.084-.515.678.678,0,0,1,.933-.219l2.235,1.386a.677.677,0,0,1,.318.5.686.686,0,0,1-.1.432A.673.673,0,0,1,4587.477,1588.6Z" transform="translate(-4585.063 -1586.36)" fill="#12263f"/></g><g transform="translate(0.164)"><path d="M4585.727,1588.4h0a.681.681,0,0,1-.492-.212.679.679,0,0,1,.023-.958l1.909-1.812a.678.678,0,0,1,.957.024.678.678,0,0,1-.024.962l-1.906,1.809A.679.679,0,0,1,4585.727,1588.4Z" transform="translate(-4585.548 -1585.733)" fill="#12263f"/></g></g><g transform="translate(23.72 31.87)"><g transform="translate(0 0.212)"><path d="M4588.915,1607.015a.679.679,0,0,1-.354-.1l-2.237-1.388a.671.671,0,0,1-.3-.42.681.681,0,0,1,.084-.515.672.672,0,0,1,.576-.32.682.682,0,0,1,.355.1l2.237,1.387a.679.679,0,0,1-.357,1.255Z" transform="translate(-4586.501 -1604.772)" fill="#12263f"/></g><g transform="translate(0.163)"><path d="M4587.165,1606.811h0a.681.681,0,0,1-.675-.6v-.012a.676.676,0,0,1,.211-.558l1.905-1.809a.679.679,0,1,1,.932.987l-1.906,1.808A.675.675,0,0,1,4587.165,1606.811Z" transform="translate(-4586.985 -1604.144)" fill="#12263f"/></g></g></g><g transform="translate(61.984 36.451)"><path d="M4509.557,1262.3c-.137-1.034,5.653,6.342-.965,6.342s-1.819-4.882-1.819-4.882l.716.263s-.827,3.1,1.172,3.1.621-4.688.621-4.688Z" transform="translate(-4505.092 -1262.202)" fill="#edbc2c"/></g><g transform="translate(162.048 38.925)"><g transform="translate(0 15.036)"><path d="M4802.239,1340.253s-3.33-9.981,2.751-17.717c3.563-4.534,12.373-8.5,12.373-8.5s18.169,13.02,16.847,17.951-15.127,20.635-15.127,20.635Z" transform="translate(-4801.329 -1314.038)" fill="#f49d8b"/></g><g transform="translate(1.641 6.28)"><path d="M4807.844,1316.848a3.457,3.457,0,0,1-1.628-3.4c1.105-8.469,1.953-18.9,1.4-20.979a3.457,3.457,0,0,1,6.679-1.79c1.167,4.359-.638,19.215-1.218,23.663a3.459,3.459,0,0,1-5.228,2.506Z" transform="translate(-4806.186 -1288.116)" fill="#f49d8b"/></g><g transform="translate(9.227)"><path d="M4831.433,1301.677a3.459,3.459,0,0,1-2.4-4.975c.064-.124,6.409-12.458,8.911-18.627l2.589-6.387a3.456,3.456,0,1,1,6.406,2.6l-2.589,6.388c-2.618,6.458-8.905,18.677-9.171,19.195A3.459,3.459,0,0,1,4831.433,1301.677Z" transform="translate(-4828.646 -1269.523)" fill="#f49d8b"/></g><g transform="translate(15.809 1.125)"><path d="M4850.917,1304.014a3.46,3.46,0,0,1-2.3-5.164c4.334-7.261,11.572-20.057,12.547-23.484a3.457,3.457,0,1,1,6.65,1.889c-1.542,5.424-12.065,23.137-13.26,25.139A3.459,3.459,0,0,1,4850.917,1304.014Z" transform="translate(-4848.132 -1272.854)" fill="#f49d8b"/></g><g transform="translate(21.828 7.504)"><path d="M4868.731,1317.273a3.459,3.459,0,0,1-2.106-5.444c.1-.128,9.484-12.873,12.046-18.146a3.457,3.457,0,0,1,6.22,3.02c-2.838,5.845-12.3,18.688-12.7,19.232A3.459,3.459,0,0,1,4868.731,1317.273Z" transform="translate(-4865.949 -1291.737)" fill="#f49d8b"/></g><g transform="translate(24.941 16.028)"><path d="M4877.945,1337.538a3.458,3.458,0,0,1-1.764-5.838c.1-.1,9.616-9.6,12.765-13.456a3.457,3.457,0,1,1,5.357,4.37c-3.372,4.134-12.839,13.582-13.241,13.981A3.452,3.452,0,0,1,4877.945,1337.538Z" transform="translate(-4875.166 -1316.973)" fill="#f49d8b"/></g><g transform="translate(11.598 25.133)"><path d="M4836.146,1361.829a.788.788,0,0,1-.411-.115.826.826,0,0,1-.1-.07.788.788,0,0,1-.1-1.109c7-8.4.148-15.465-.147-15.762a.788.788,0,0,1,.561-1.344.782.782,0,0,1,.561.237,14.781,14.781,0,0,1,3.115,5.4,12.076,12.076,0,0,1,.428,5.7,14.354,14.354,0,0,1-3.309,6.777A.787.787,0,0,1,4836.146,1361.829Z" transform="translate(-4835.666 -1343.93)" fill="#12263f"/></g><g transform="translate(16.392 18.856)"><path d="M4864.921,1337.877a.789.789,0,0,1-.3-.058l0,0a.812.812,0,0,1-.192-.114l-.012-.01c-.436-.356-10.724-8.74-14.709-11.406a.794.794,0,0,1-.218-1.091l0-.006a.789.789,0,0,1,.652-.346.8.8,0,0,1,.432.127l.008.005c4.179,2.794,14.735,11.417,14.838,11.5a.788.788,0,0,1-.5,1.4Z" transform="translate(-4849.856 -1325.345)" fill="#12263f"/></g><g transform="translate(28.316 20.522)"><path d="M4885.389,1338.8a.726.726,0,0,1-.129-.011.734.734,0,0,1-.37-.185l-.009-.008a.736.736,0,0,1-.021-1.03l7.24-7.556a.73.73,0,0,1,1.033-.028l.005.005a.735.735,0,0,1,.022,1.03l-7.247,7.563A.74.74,0,0,1,4885.389,1338.8Z" transform="translate(-4885.158 -1330.278)" fill="#12263f"/></g><g transform="translate(23.746 16.109)"><path d="M4871.859,1326.022a.749.749,0,0,1-.13-.011.738.738,0,0,1-.313-.137l-.017-.013a.737.737,0,0,1-.117-1.021l6.214-7.848a.72.72,0,0,1,.571-.278.745.745,0,0,1,.451.153l.009.007a.736.736,0,0,1,.117,1.022l-6.214,7.848A.724.724,0,0,1,4871.859,1326.022Z" transform="translate(-4871.628 -1317.215)" fill="#12263f"/></g><g transform="translate(19.006 15.052)"><path d="M4857.825,1320.476a.738.738,0,0,1-.128-.011.73.73,0,0,1-.464-1.145l3.9-5.433a.732.732,0,0,1,.592-.3.728.728,0,0,1,.59,1.158l-3.9,5.43A.733.733,0,0,1,4857.825,1320.476Z" transform="translate(-4857.595 -1314.084)" fill="#12263f"/></g></g><g transform="translate(157.485 117.451)"><path d="M4788.057,1515.386a.766.766,0,0,1-.132-.012l-.042-.008a.745.745,0,0,1-.546-.876l.024-.1c.375-1.587,1.7-7.167,2.987-12.326a.73.73,0,0,1,.707-.561.748.748,0,0,1,.2.027.74.74,0,0,1,.528.889c-.858,3.428-1.907,7.752-2.954,12.177-.035.146-.054.227-.056.234A.737.737,0,0,1,4788.057,1515.386Z" transform="translate(-4787.82 -1502)" fill="#12263f"/></g></g><g transform="translate(4542.649 1232.739)"><g transform="translate(0 2.911)"><path d="M5029.52,1486.472l-5.7,2.228v.037l5.7,2.228v2.443l-9.093-3.557v-2.265l9.093-3.557Z" transform="translate(-5020.427 -1484.029)" fill="#fff"/></g><g transform="translate(11.142 0)"><path d="M5062.417,1479.04a2.767,2.767,0,0,0-1.015-.774,3.378,3.378,0,0,0-1.393-.268,3.49,3.49,0,0,0-2.633,1.159,3.974,3.974,0,0,0-.772,1.3,4.953,4.953,0,0,0,0,3.28,4.092,4.092,0,0,0,.763,1.294,3.45,3.45,0,0,0,1.142.854,3.3,3.3,0,0,0,1.41.305,3.171,3.171,0,0,0,1.528-.359,3.068,3.068,0,0,0,1.1-1.006l2.335,1.743a4.866,4.866,0,0,1-2.049,1.672,6.354,6.354,0,0,1-2.552.538,7.848,7.848,0,0,1-2.75-.466,6.283,6.283,0,0,1-2.174-1.339,6.081,6.081,0,0,1-1.429-2.112,7.731,7.731,0,0,1,0-5.535,6.08,6.08,0,0,1,1.429-2.113,6.32,6.32,0,0,1,2.174-1.339,7.851,7.851,0,0,1,2.75-.466,6.9,6.9,0,0,1,1.124.1,6.075,6.075,0,0,1,1.15.315,5.038,5.038,0,0,1,1.087.576,4.334,4.334,0,0,1,.935.879Z" transform="translate(-5053.413 -1475.41)" fill="#fff"/></g><g transform="translate(23.453 0)"><path d="M5089.858,1482.094a7.191,7.191,0,0,1,.512-2.766,6.081,6.081,0,0,1,1.429-2.113,6.32,6.32,0,0,1,2.174-1.339,8.349,8.349,0,0,1,5.5,0,6.333,6.333,0,0,1,2.175,1.339,6.091,6.091,0,0,1,1.428,2.113,7.731,7.731,0,0,1,0,5.535,6.092,6.092,0,0,1-1.428,2.112,6.3,6.3,0,0,1-2.175,1.339,8.349,8.349,0,0,1-5.5,0,6.283,6.283,0,0,1-2.174-1.339,6.082,6.082,0,0,1-1.429-2.112A7.192,7.192,0,0,1,5089.858,1482.094Zm2.912,0a4.657,4.657,0,0,0,.279,1.645,3.757,3.757,0,0,0,.8,1.294,3.64,3.64,0,0,0,1.25.854,4.484,4.484,0,0,0,3.252,0,3.642,3.642,0,0,0,1.249-.854,3.757,3.757,0,0,0,.8-1.294,4.97,4.97,0,0,0,0-3.28,3.738,3.738,0,0,0-.8-1.3,3.634,3.634,0,0,0-1.249-.854,4.477,4.477,0,0,0-3.252,0,3.631,3.631,0,0,0-1.25.854,3.738,3.738,0,0,0-.8,1.3A4.7,4.7,0,0,0,5092.77,1482.094Z" transform="translate(-5089.858 -1475.41)" fill="#fff"/></g><g transform="translate(39.088 0.323)"><path d="M5136.146,1476.366h4.205a12.043,12.043,0,0,1,2.9.341,6.68,6.68,0,0,1,2.4,1.106,5.42,5.42,0,0,1,1.626,1.985,6.659,6.659,0,0,1,.6,2.966,6.065,6.065,0,0,1-.583,2.723,5.861,5.861,0,0,1-1.574,1.975,6.922,6.922,0,0,1-2.282,1.214,8.855,8.855,0,0,1-2.714.413h-4.583Zm2.8,10.136h1.455a7.767,7.767,0,0,0,1.806-.2,3.852,3.852,0,0,0,1.447-.656,3.154,3.154,0,0,0,.961-1.2,4.265,4.265,0,0,0,.351-1.825,3.546,3.546,0,0,0-.351-1.625,3.248,3.248,0,0,0-.943-1.141,4.11,4.11,0,0,0-1.393-.674,6.148,6.148,0,0,0-1.68-.225h-1.653Z" transform="translate(-5136.146 -1476.366)" fill="#fff"/></g><g transform="translate(52.835 0.323)"><path d="M5176.846,1476.366h8.645v2.589h-5.841v2.371h5.517v2.588h-5.517v2.589h6.163v2.588h-8.967Z" transform="translate(-5176.846 -1476.366)" fill="#fff"/></g><g transform="translate(64.194 2.911)"><path d="M5210.472,1490.965l5.7-2.228v-.037l-5.7-2.228v-2.443l9.093,3.557v2.265l-9.093,3.557Z" transform="translate(-5210.472 -1484.029)" fill="#fff"/></g></g><g transform="translate(4494.894 1108.958)"><g transform="translate(0)"><path d="M4947.365,1150.844a32.667,32.667,0,0,0-1.065-9.867l7.664-7.018-4.548-8.3-9.472,3c-.157-.188-.291-.389-.453-.574a30.748,30.748,0,0,0-7.571-6.266l.916-10.025-8.8-2.839-4.9,8.837a29.172,29.172,0,0,0-10.182,1.016l-6.042-7.307-8.083,4.58,2.544,9.117c-.178.158-.366.293-.54.457a30.449,30.449,0,0,0-5.986,7.84l-9.694-.121-2.11,9.29,8.1,3.938a32.656,32.656,0,0,0,1.158,10.842l-7.361,7.1,4.659,8.234,9.168-3.175c.073.085.133.177.207.262a30.726,30.726,0,0,0,7.431,6.189l-.086,11.04,8.978,2.149,4.07-9.081a29.169,29.169,0,0,0,10.327-1.078l6.889,7.551,7.912-4.891-3.072-9.279c.065-.06.136-.109.2-.17a30.453,30.453,0,0,0,6.139-8.143l9.619.768,2.587-9.16Zm-29.854,15.466a17.209,17.209,0,1,1,17.209-17.209A17.21,17.21,0,0,1,4917.512,1166.31Z" transform="translate(-4879.049 -1108.958)" fill="#744386"/></g><g transform="translate(13.46 15.14)"><path d="M4943.9,1203.783a25,25,0,1,1,25-25A25.03,25.03,0,0,1,4943.9,1203.783Zm0-48.055a23.054,23.054,0,1,0,23.055,23.054A23.081,23.081,0,0,0,4943.9,1155.728Z" transform="translate(-4918.896 -1153.78)" fill="#fff"/></g></g><g transform="translate(4443.451 1150.17)"><g transform="translate(0 0)"><path d="M4771.167,1258.2a21.225,21.225,0,0,0-.693-6.415l4.982-4.562-2.956-5.4-6.157,1.952c-.1-.122-.19-.253-.295-.373a19.991,19.991,0,0,0-4.923-4.074l.6-6.517-5.719-1.846-3.185,5.746a18.971,18.971,0,0,0-6.619.661l-3.928-4.751-5.255,2.978,1.653,5.927c-.115.1-.237.191-.351.3a19.827,19.827,0,0,0-3.892,5.1l-6.3-.079-1.372,6.04,5.266,2.56a21.209,21.209,0,0,0,.753,7.049l-4.787,4.613,3.03,5.353,5.96-2.064c.048.055.087.115.135.17a19.983,19.983,0,0,0,4.831,4.024l-.056,7.177,5.836,1.4,2.646-5.9a18.98,18.98,0,0,0,6.714-.7l4.479,4.909,5.143-3.18-2-6.033c.043-.039.089-.071.132-.11a19.808,19.808,0,0,0,3.99-5.294l6.254.5,1.682-5.955Zm-19.409,10.055a11.189,11.189,0,1,1,11.188-11.189A11.188,11.188,0,0,1,4751.758,1268.251Z" transform="translate(-4726.752 -1230.965)" fill="#6aceae"/></g><g transform="translate(8.751 9.843)"><path d="M4768.913,1292.615a16.254,16.254,0,1,1,16.255-16.254A16.273,16.273,0,0,1,4768.913,1292.615Zm0-31.242a14.988,14.988,0,1,0,14.989,14.988A15.005,15.005,0,0,0,4768.913,1261.373Z" transform="translate(-4752.658 -1260.106)" fill="#fff"/></g></g><g transform="translate(4493.057 1193.154)"><g transform="translate(0 0)"><path d="M4908.584,1379.662a16.658,16.658,0,0,0-.546-5.052l3.924-3.592-2.328-4.25-4.849,1.537c-.08-.1-.149-.2-.232-.294a15.712,15.712,0,0,0-3.876-3.208l.47-5.132-4.5-1.453-2.508,4.524a14.94,14.94,0,0,0-5.213.52l-3.093-3.741-4.139,2.345,1.3,4.668c-.091.081-.187.15-.276.234a15.607,15.607,0,0,0-3.064,4.013l-4.963-.062-1.08,4.756,4.146,2.016a16.727,16.727,0,0,0,.593,5.55l-3.769,3.633,2.386,4.215,4.693-1.625c.037.044.067.091.106.134a15.71,15.71,0,0,0,3.8,3.169l-.044,5.652,4.6,1.1,2.084-4.649a14.932,14.932,0,0,0,5.287-.552l3.526,3.866,4.05-2.5-1.572-4.75c.033-.031.07-.056.1-.087a15.6,15.6,0,0,0,3.143-4.169l4.924.393,1.325-4.689Zm-15.283,7.918a8.81,8.81,0,1,1,8.81-8.81A8.81,8.81,0,0,1,4893.3,1387.58Z" transform="translate(-4873.61 -1358.219)" fill="#6aceae"/></g><g transform="translate(6.891 7.751)"><path d="M4906.809,1406.764a12.8,12.8,0,1,1,12.8-12.8A12.814,12.814,0,0,1,4906.809,1406.764Zm0-24.6a11.8,11.8,0,1,0,11.8,11.8A11.816,11.816,0,0,0,4906.809,1382.163Z" transform="translate(-4894.01 -1381.165)" fill="#fff"/></g></g></g></svg>