<svg xmlns="http://www.w3.org/2000/svg" xmlns:xlink="http://www.w3.org/1999/xlink" width="473.685" height="457.146" viewBox="0 0 473.685 457.146">
  <defs>
    <filter id="Elipse_180" x="228.45" y="0" width="195.617" height="195.617" filterUnits="userSpaceOnUse">
      <feOffset dx="5" dy="5" input="SourceAlpha"/>
      <feGaussianBlur stdDeviation="12.5" result="blur"/>
      <feFlood flood-opacity="0.161"/>
      <feComposite operator="in" in2="blur"/>
      <feComposite in="SourceGraphic"/>
    </filter>
    <clipPath id="clip-path">
      <ellipse id="Elipse_7381" data-name="Elipse 7381" cx="56.478" cy="53.336" rx="56.478" ry="53.336" transform="translate(0 0)" fill="none" stroke="#707070" stroke-width="1"/>
    </clipPath>
    <filter id="Elipse_180-2" x="64.09" y="0" width="195.617" height="195.617" filterUnits="userSpaceOnUse">
      <feOffset dx="5" dy="5" input="SourceAlpha"/>
      <feGaussianBlur stdDeviation="12.5" result="blur-2"/>
      <feFlood flood-opacity="0.161"/>
      <feComposite operator="in" in2="blur-2"/>
      <feComposite in="SourceGraphic"/>
    </filter>
    <clipPath id="clip-path-2">
      <ellipse id="Elipse_7381-2" data-name="Elipse 7381" cx="56.478" cy="53.336" rx="56.478" ry="53.336" transform="translate(1 3)" fill="none" stroke="#707070" stroke-width="1"/>
    </clipPath>
    <filter id="Elipse_180-3" x="0" y="145.754" width="195.617" height="195.617" filterUnits="userSpaceOnUse">
      <feOffset dx="5" dy="5" input="SourceAlpha"/>
      <feGaussianBlur stdDeviation="12.5" result="blur-3"/>
      <feFlood flood-opacity="0.161"/>
      <feComposite operator="in" in2="blur-3"/>
      <feComposite in="SourceGraphic"/>
    </filter>
    <clipPath id="clip-path-3">
      <ellipse id="Elipse_7381-3" data-name="Elipse 7381" cx="56.478" cy="53.336" rx="56.478" ry="53.336" transform="translate(0 7)" fill="none" stroke="#707070" stroke-width="1"/>
    </clipPath>
    <filter id="Elipse_180-4" x="278.068" y="168.496" width="195.617" height="195.617" filterUnits="userSpaceOnUse">
      <feOffset dx="5" dy="5" input="SourceAlpha"/>
      <feGaussianBlur stdDeviation="12.5" result="blur-4"/>
      <feFlood flood-opacity="0.161"/>
      <feComposite operator="in" in2="blur-4"/>
      <feComposite in="SourceGraphic"/>
    </filter>
    <clipPath id="clip-path-4">
      <ellipse id="Elipse_7381-4" data-name="Elipse 7381" cx="56.478" cy="53.336" rx="56.478" ry="53.336" transform="translate(0)" fill="none" stroke="#707070" stroke-width="1"/>
    </clipPath>
    <filter id="Elipse_180-5" x="126.466" y="261.529" width="195.617" height="195.617" filterUnits="userSpaceOnUse">
      <feOffset dx="5" dy="5" input="SourceAlpha"/>
      <feGaussianBlur stdDeviation="12.5" result="blur-5"/>
      <feFlood flood-opacity="0.161"/>
      <feComposite operator="in" in2="blur-5"/>
      <feComposite in="SourceGraphic"/>
    </filter>
    <clipPath id="clip-path-5">
      <ellipse id="Elipse_7381-5" data-name="Elipse 7381" cx="56.478" cy="53.336" rx="56.478" ry="53.336" transform="translate(0 -4)" fill="none" stroke="#707070" stroke-width="1"/>
    </clipPath>
  </defs>
  <g id="Grupo_881560" data-name="Grupo 881560" transform="translate(-988.814 -9652.32)">
    <path id="Trazado_602576" data-name="Trazado 602576" d="M739.524,1146.675l-65.556,65.556a157.58,157.58,0,0,1-33.727-169.582l85.646,35.478a64.729,64.729,0,0,0,13.637,68.548Z" transform="translate(437.404 8761.351)" fill="#becbff"/>
    <path id="Trazado_602577" data-name="Trazado 602577" d="M865.8,1232.611a157.235,157.235,0,0,1-191.747-22.686l65.556-65.566a64.657,64.657,0,0,0,77.754,9.227Z" transform="translate(440.333 8767.679)" fill="#ffdb78" opacity="0.751"/>
    <path id="Trazado_602578" data-name="Trazado 602578" d="M936.415,1101.224a158.781,158.781,0,0,1-74.136,133.76l-48.437-79.036a64.818,64.818,0,0,0,27.1-73.469l88.169-28.649A157.506,157.506,0,0,1,936.415,1101.224Z" transform="translate(445.282 8761.825)" fill="#d4bea7" opacity="0.863"/>
    <path id="Trazado_602579" data-name="Trazado 602579" d="M929.61,1055.633l-88.169,28.639a64.878,64.878,0,0,0-60-43.589v-92.7A157.352,157.352,0,0,1,929.61,1055.633Z" transform="translate(443.903 8757.321)" fill="#ffdbb2"/>
    <path id="Trazado_602580" data-name="Trazado 602580" d="M784.581,947.979v92.7a64.839,64.839,0,0,0-58.133,38.835L640.8,1044.051A157.276,157.276,0,0,1,784.581,947.979Z" transform="translate(437.917 8757.321)" fill="#8bd4bc" opacity="0.803"/>
    <g id="Grupo_875625" data-name="Grupo 875625" transform="translate(1249.765 9684.82)">
      <g transform="matrix(1, 0, 0, 1, -260.95, -32.5)" filter="url(#Elipse_180)">
        <circle id="Elipse_180-6" data-name="Elipse 180" cx="60.308" cy="60.308" r="60.308" transform="translate(260.95 32.5)" fill="#fff"/>
      </g>
    </g>
    <g id="Enmascarar_grupo_700350" data-name="Enmascarar grupo 700350" transform="translate(1253.595 9696.793)" clip-path="url(#clip-path)">
      <g id="Grupo_880016" data-name="Grupo 880016" transform="translate(24.787 21.192)">
        <path id="Trazado_602581" data-name="Trazado 602581" d="M1159.012,988.8c-.025.661-.209,1-1.031.988-3.558-.06-7.118.012-10.676-.036a7.346,7.346,0,0,1-7.373-7.468q-.032-18.9,0-37.806a7.336,7.336,0,0,1,7.522-7.434q18.842-.02,37.683,0a7.349,7.349,0,0,1,7.571,7.515c.027,6.112-.013,12.225.024,18.338.007,1.221-.5,1.641-1.658,1.6-1.421-.054-2.848-.054-4.269.008-.6.026-1.578-.515-1.568.857,0,.336-.688.093-1.013.289-1.292.1-1.093-1-1.312-1.7-.313-1,.08-1.505,1.132-1.549.834-.035,1.675.036,2.507-.019,1.311-.087,2.645.272,3.934-.2l.035-.3q.033-3.262.066-6.525c.023-2.759.158-5.519-.055-8.276a11.7,11.7,0,0,0-.022-3.465,5.077,5.077,0,0,0-4.574-4.37,1.8,1.8,0,0,0-.472-.135q-8.695-.016-17.389-.012c-.313,0-.721-.08-.678.465v4.494c.468,1,1.323.189,1.956.416,3.375.774,5.5,3.287,5.426,6.407a6.466,6.466,0,0,1-5.288,6.155c-.7.146-1.683-.392-2.047.382a5.657,5.657,0,0,0-.077,2.229c0,.249.033.5.051.748-.018.207-.023.416-.058.621-.18,1.064.176,1.48,1.33,1.4,1.577-.111,3.167-.033,4.752-.026,1.654.007,1.917.35,1.512,1.94a4.107,4.107,0,0,0,2.379,5.054A.945.945,0,0,1,1178,970.7c-.115.924-.518,1.122-1.41.739a6.44,6.44,0,0,1-3.919-6.047c0-.7-.116-.964-.86-.927a32.214,32.214,0,0,1-3.513,0c-.817-.049-.971.271-.954,1.01.047,2.007.019,4.017.014,6.025,0,1.746-.28,1.95-2.016,1.513a4.271,4.271,0,0,0-4.954,2.244,4.1,4.1,0,0,0,1.278,5.156c.709.493.8.915.443,1.586-.261.742-.624.91-1.347.421a7.086,7.086,0,0,1-2.9-4.451c-.025-4.5,2.3-7.033,6.662-7.2.639-.025.77-.222.759-.792-.028-1.546-.037-3.094,0-4.64.018-.666-.215-.87-.865-.858-1.8.034-3.6.021-5.393.008-1.457-.01-1.8-.473-1.415-1.844a4.208,4.208,0,1,0-7.947-.049c.384,1.387.035,1.879-1.388,1.893-1.8.017-3.6.014-5.394,0-.527,0-.871.067-.866.735.036,5.349.048,10.7.066,16.048-.339,3.892,1.855,6.339,5.72,6.353,3.293.012,6.588.039,9.88-.019C1158.626,987.579,1159.1,987.814,1159.012,988.8Zm6.055-26.632c.393-.332.195-.781.2-1.172.025-1.63,0-3.261.014-4.892.013-1.407.42-1.708,1.775-1.36a4.207,4.207,0,0,0,4.774-6.46,4.16,4.16,0,0,0-4.8-1.464c-.87.261-1.47.132-1.81-.755q.005-3.253.01-6.507c-.112-.739-.7-.431-1.074-.432-5.451-.021-10.9-.015-16.354-.011a1.985,1.985,0,0,0-1.1.146,5.1,5.1,0,0,0-4.673,5.285c-.068,5.6-.02,11.206-.009,16.809,0,.33-.18.807.431.852h4.5c.207,0,.322-.086.3-.307.142-4.258,2.748-7.061,6.513-7,3.616.055,6.114,2.856,6.254,7.012-.018.2.078.3.279.3l4.5,0Z" transform="translate(-1139.916 -937.035)" fill="#050403"/>
        <path id="Trazado_602582" data-name="Trazado 602582" d="M1245.215,1055.825a10.782,10.782,0,0,0,2.666-1.045c1.576-.649,1.822-.568,2.409.994.941,2.5,1.891,5,2.805,7.51a2.787,2.787,0,0,0,1.122,1.434c2.6,1.756,5.161,3.566,7.759,5.322a5.559,5.559,0,0,1,2.608,4.975c-.035,4.06-.006,8.12-.015,12.18,0,.489.239,1.14-.714,1.069-.73-.053-1.583.186-1.436-1.036.016-4.223.051-8.446.037-12.669a3.2,3.2,0,0,0-1.577-2.7c-1.765-1.2-3.509-2.422-5.275-3.617-.2-.138-.381-.494-.735-.253.6,1.608,1.21,3.2,1.8,4.8a5.638,5.638,0,0,1,.462,3.311,2.642,2.642,0,0,0,1.125,3.2c.783.529.55.929-.011,1.537-.658.715-.995.495-1.553-.08-2.1-2.159-4.251-4.268-6.376-6.4a1.537,1.537,0,0,0-2.323-.226c-.739.628-.694,1.56.122,2.411.956,1,1.926,1.979,2.931,2.925a2.882,2.882,0,0,1,.944,1.957,4.991,4.991,0,0,0,4.108,4.472c.938.144,1.2.506,1.168,1.321.055.835-.3,1.061-1.121.9a14.749,14.749,0,0,1-2.821-.95,11.6,11.6,0,0,1-2.211-2.169c-1.125-1.657-1.137-1.649-3.072-.893-.116.045-.235.085-.355.12-.6.173-.59.49-.2.878a2.541,2.541,0,0,0,.745.648c.788.294.813.8.542,1.457-.191,1.05-.745.966-1.47.5a4.832,4.832,0,0,1-1.789-1.724c-.359-.693-.729-.691-1.38-.437-3,1.17-6.028,2.253-9.019,3.438-1.124.445-1.714.155-2.094-.954-.514-1.5-1.108-2.966-1.677-4.474-2.814,1.286-5.374,1.086-7.625-1.014a6.578,6.578,0,0,1-1.862-5.869c.643-2.02,1.725-3.785,3.8-4.445,1.46-.465,1.191-1.087.659-2-.557-1.524-1.107-3.05-1.67-4.571-.64-1.731-.548-1.949,1.141-2.588q2.809-1.063,5.617-2.128c1.8-.68,2.044-.517,2.3,1.367a4.09,4.09,0,0,0,2.9,3.584,3.931,3.931,0,0,0,4.266-1.021,4.076,4.076,0,0,0,.978-4.507c-.207-.589-.5-1.147-.751-1.719a1.367,1.367,0,0,1,.96-1.292c.979-.422,1.942-.881,2.912-1.324l.252-.222Zm6.434,9.736c-.969-2.625-1.962-5.243-2.891-7.882-.26-.739-.587-.739-1.193-.435a21.575,21.575,0,0,1-2.753,1.209c-.919.31-1.175.664-.846,1.691a6.228,6.228,0,0,1-3.426,7.515,6.4,6.4,0,0,1-7.966-2.321c-.454-.672-.362-1.9-1.187-2-.779-.092-1.642.508-2.466.807-.471.171-.931.38-1.412.516-.693.2-.779.548-.519,1.2.757,1.9,1.453,3.827,2.162,5.748.6,1.634.366,2.023-1.317,2.2a4.182,4.182,0,1,0,2.973,7.46c1.208-.846,1.678-.712,2.22.679.485,1.245.991,2.487,1.385,3.761.268.87.6,1.085,1.5.719,2.514-1.023,5.07-1.942,7.609-2.9l6.345-2.4c-1.26-1.205-2.349-2.23-3.419-3.275a3.649,3.649,0,0,1,1.264-6.055,3.52,3.52,0,0,1,3.834.8c1.126,1.068,2.215,2.176,3.32,3.267l.321-.2C1254.413,1072.16,1252.894,1068.9,1251.649,1065.56Z" transform="translate(-1201.213 -1024.892)" fill="#060606"/>
        <path id="Trazado_602583" data-name="Trazado 602583" d="M1265.275,998.089c-.97.443-1.933.9-2.912,1.324a1.367,1.367,0,0,0-.96,1.292l-1.809-.085a.944.944,0,0,0-.665-1.312,4.107,4.107,0,0,1-2.379-5.054c.405-1.59.142-1.933-1.511-1.94-1.585-.007-3.176-.085-4.752.026-1.155.081-1.51-.335-1.33-1.4.035-.2.039-.414.058-.621,1.258-.437,2.53-.84,3.773-1.315,6.755-2.584,13.075-5.875,18.118-11.227.334-.354.627-.813,1.221-.773.213,2.758.077,5.517.054,8.276q-.027,3.262-.066,6.525c-.181.079-.259.17-.034.3-1.29.473-2.624.114-3.934.2-.832.055-1.672-.016-2.507.019-1.052.044-1.445.552-1.132,1.549.219.7.02,1.8,1.313,1.7.142.805-.348,1.527-.308,2.319l.016-.021C1265.347,997.833,1265.3,997.952,1265.275,998.089Z" transform="translate(-1221.509 -966.955)" fill="#d25144"/>
        <path id="Trazado_602584" data-name="Trazado 602584" d="M1171.379,1104.245c.532.911.8,1.534-.659,2-2.076.661-3.158,2.425-3.8,4.445l-1.551-.01c.086-.987-.386-1.222-1.328-1.206-3.293.058-6.587.031-9.88.019-3.864-.014-6.059-2.46-5.719-6.353a41.034,41.034,0,0,0,8.742-1.16c2.4-.518,4.671-1.488,7.035-2.136a7.086,7.086,0,0,0,2.9,4.451c.723.49,1.086.322,1.347-.421A5.017,5.017,0,0,0,1171.379,1104.245Z" transform="translate(-1146.27 -1058.912)" fill="#faa419"/>
        <path id="Trazado_602585" data-name="Trazado 602585" d="M1333.7,1127.433c.031-.815-.23-1.178-1.168-1.321a4.991,4.991,0,0,1-4.108-4.472,2.881,2.881,0,0,0-.944-1.956c-1-.946-1.975-1.929-2.931-2.925-.816-.851-.861-1.783-.122-2.411a1.536,1.536,0,0,1,2.323.226c2.126,2.133,4.277,4.242,6.377,6.4.558.574.895.795,1.553.08.56-.609.794-1.009.011-1.537a2.641,2.641,0,0,1-1.125-3.2,5.639,5.639,0,0,0-.462-3.311c-.59-1.6-1.2-3.189-1.8-4.8.354-.241.532.115.736.253,1.766,1.195,3.51,2.421,5.275,3.617a3.2,3.2,0,0,1,1.577,2.7c.014,4.223-.021,8.446-.037,12.669Z" transform="translate(-1277.647 -1065.115)" fill="#fac6a1"/>
        <path id="Trazado_602586" data-name="Trazado 602586" d="M1324.445,1174.195c.27-.652.246-1.162-.542-1.457a2.542,2.542,0,0,1-.745-.648c-.393-.388-.4-.7.2-.878.12-.035.239-.074.355-.12,1.935-.755,1.947-.763,3.072.893a11.6,11.6,0,0,0,2.211,2.169Z" transform="translate(-1276.881 -1111.882)" fill="#f3b98e"/>
        <path id="Trazado_602587" data-name="Trazado 602587" d="M1164.12,1037.491c-2.364.648-4.63,1.618-7.035,2.136a41.059,41.059,0,0,1-8.742,1.16c-.019-5.35-.03-10.7-.066-16.048,0-.668.339-.739.866-.735,1.8.014,3.6.018,5.394,0,1.423-.013,1.772-.506,1.388-1.893a4.207,4.207,0,1,1,7.947.049c-.387,1.371-.042,1.834,1.415,1.844,1.8.013,3.6.026,5.394-.008.651-.012.883.193.865.858-.041,1.546-.032,3.094,0,4.64.011.57-.12.767-.759.792C1166.416,1030.458,1164.1,1032.995,1164.12,1037.491Z" transform="translate(-1146.175 -996.56)" fill="#fab42e"/>
        <path id="Trazado_602588" data-name="Trazado 602588" d="M1148.657,968.848c-.611-.045-.431-.522-.431-.852-.012-5.6-.06-11.207.009-16.809a5.1,5.1,0,0,1,4.673-5.285c.392.468.93.277,1.405.279q8.559.024,17.119.019-.005,3.254-.01,6.507a2.462,2.462,0,0,0-1.7.67,47.777,47.777,0,0,1-8.433,5.34,66.638,66.638,0,0,1-11.554,4.739,1.282,1.282,0,0,0-1.1,1.506C1148.7,966.253,1148.656,967.552,1148.657,968.848Z" transform="translate(-1146.116 -943.673)" fill="#87b136"/>
        <path id="Trazado_602589" data-name="Trazado 602589" d="M1272.049,953.685c-.595-.041-.887.418-1.221.773-5.043,5.352-11.362,8.644-18.118,11.227-1.243.476-2.515.879-3.773,1.315-.018-.249-.051-.5-.051-.748a5.654,5.654,0,0,1,.077-2.229c.364-.775,1.346-.237,2.047-.382a6.466,6.466,0,0,0,5.288-6.155c.077-3.12-2.051-5.633-5.426-6.407-.517-.773-1.323-.191-1.956-.416q0-2.247,0-4.494,8.565-.016,17.129-.04c.477,0,1.014.183,1.41-.277a5.077,5.077,0,0,1,4.574,4.37A11.718,11.718,0,0,1,1272.049,953.685Z" transform="translate(-1221.433 -943.634)" fill="#e65849"/>
        <path id="Trazado_602590" data-name="Trazado 602590" d="M1149.945,989.1c0-1.3.044-2.595-.022-3.888a1.282,1.282,0,0,1,1.1-1.506,66.62,66.62,0,0,0,11.553-4.739,47.748,47.748,0,0,0,8.433-5.34,2.462,2.462,0,0,1,1.7-.669c.34.887.94,1.016,1.81.754a4.16,4.16,0,0,1,4.8,1.464,4.208,4.208,0,0,1-4.774,6.46c-1.355-.349-1.762-.047-1.775,1.36-.015,1.631.011,3.261-.015,4.892-.006.39.192.84-.2,1.172-.118-.194-.2-.125-.264.038l-4.5,0-.279-.3c-.14-4.156-2.638-6.956-6.254-7.012-3.765-.058-6.371,2.745-6.513,7l-.3.307Z" transform="translate(-1147.404 -963.928)" fill="#7ea633"/>
        <path id="Trazado_602591" data-name="Trazado 602591" d="M1224.734,1064.019a5.017,5.017,0,0,1-2.913-.371c.357-.671.266-1.093-.443-1.586a4.1,4.1,0,0,1-1.278-5.156,4.27,4.27,0,0,1,4.954-2.244c1.736.437,2.012.233,2.017-1.514.005-2.008.033-4.018-.014-6.025-.017-.739.136-1.059.954-1.01a32.245,32.245,0,0,0,3.513,0c.744-.037.862.232.86.927a6.44,6.44,0,0,0,3.919,6.048c.892.382,1.294.184,1.41-.739l1.808.085c.253.572.544,1.131.751,1.719a4.077,4.077,0,0,1-.978,4.507,3.931,3.931,0,0,1-4.266,1.021,4.09,4.09,0,0,1-2.9-3.584c-.261-1.884-.506-2.047-2.3-1.367q-2.809,1.062-5.617,2.128c-1.688.639-1.781.857-1.14,2.588C1223.627,1060.97,1224.177,1062.5,1224.734,1064.019Z" transform="translate(-1199.625 -1018.687)" fill="#f2f4f4"/>
        <path id="Trazado_602592" data-name="Trazado 602592" d="M1185.454,945.61q-8.56-.005-17.119-.019c-.475,0-1.013.19-1.406-.279a1.986,1.986,0,0,1,1.1-.146c5.451,0,10.9-.01,16.354.011C1184.754,945.179,1185.342,944.871,1185.454,945.61Z" transform="translate(-1160.138 -943.084)" fill="#7ea633"/>
        <path id="Trazado_602593" data-name="Trazado 602593" d="M1267.754,945.4c-.4.46-.932.275-1.41.277q-8.564.035-17.129.041c-.043-.545.365-.465.678-.465q8.695,0,17.39.012A1.8,1.8,0,0,1,1267.754,945.4Z" transform="translate(-1221.734 -943.182)" fill="#bf493d"/>
        <path id="Trazado_602594" data-name="Trazado 602594" d="M1249.231,964.984c.634.225,1.439-.357,1.956.416C1250.554,965.173,1249.7,965.988,1249.231,964.984Z" transform="translate(-1221.748 -957.957)" fill="#bf493d"/>
        <path id="Trazado_602595" data-name="Trazado 602595" d="M1167.932,1036.259l.3-.306C1168.253,1036.173,1168.139,1036.262,1167.932,1036.259Z" transform="translate(-1160.888 -1011.084)" fill="#87b136"/>
        <path id="Trazado_602596" data-name="Trazado 602596" d="M1219.91,1035.989l.279.3C1219.987,1036.289,1219.891,1036.193,1219.91,1035.989Z" transform="translate(-1199.797 -1011.111)" fill="#87b136"/>
        <path id="Trazado_602597" data-name="Trazado 602597" d="M1238.908,1036.7c.066-.163.146-.232.264-.038Z" transform="translate(-1214.021 -1011.527)" fill="#87b136"/>
        <path id="Trazado_602598" data-name="Trazado 602598" d="M1340.653,1036.182c-.224-.126-.147-.216.035-.3Q1340.671,1036.034,1340.653,1036.182Z" transform="translate(-1290.083 -1011.034)" fill="#e65849"/>
        <path id="Trazado_602599" data-name="Trazado 602599" d="M1231.375,1088.233a4.109,4.109,0,0,1,3.055-6.516c1.682-.182,1.92-.571,1.317-2.2-.709-1.92-1.405-3.846-2.162-5.747-.26-.654-.174-1,.519-1.2.481-.137.941-.346,1.412-.517.825-.3,1.687-.9,2.466-.807.824.1.732,1.329,1.187,2a6.4,6.4,0,0,0,7.966,2.321,6.227,6.227,0,0,0,3.426-7.515c-.329-1.027-.073-1.382.846-1.691a21.55,21.55,0,0,0,2.753-1.209c.606-.3.933-.3,1.193.435.929,2.64,1.922,5.257,2.891,7.882a3.6,3.6,0,0,0-1.56,1.4,16.17,16.17,0,0,1-2.758,2.888c-6.161,5.282-13.46,8.138-21.291,9.81C1232.128,1087.669,1231.648,1087.731,1231.375,1088.233Z" transform="translate(-1207.807 -1032.794)" fill="#4296cf"/>
        <path id="Trazado_602600" data-name="Trazado 602600" d="M1233.66,1113.569c.273-.5.753-.563,1.259-.671,7.832-1.672,15.131-4.528,21.291-9.81a16.174,16.174,0,0,0,2.758-2.888,3.6,3.6,0,0,1,1.56-1.4c1.245,3.344,2.764,6.6,3.535,10.1l-.321.2c-1.105-1.091-2.194-2.2-3.32-3.267a3.52,3.52,0,0,0-3.834-.8,3.649,3.649,0,0,0-1.264,6.055c1.07,1.045,2.159,2.07,3.419,3.275l-6.345,2.4c-2.539.961-5.1,1.879-7.609,2.9-.9.366-1.227.151-1.5-.719-.394-1.275-.9-2.517-1.385-3.762-.542-1.391-1.012-1.525-2.22-.679A4.074,4.074,0,0,1,1233.66,1113.569Z" transform="translate(-1210.092 -1058.13)" fill="#3d8dc6"/>
        <path id="Trazado_602601" data-name="Trazado 602601" d="M1314,1060.2c.028-.137.072-.256.251-.222Z" transform="translate(-1270.233 -1029.062)" fill="#f7f9fa"/>
      </g>
    </g>
    <g id="Grupo_875625-2" data-name="Grupo 875625" transform="translate(1085.405 9684.82)">
      <g transform="matrix(1, 0, 0, 1, -96.59, -32.5)" filter="url(#Elipse_180-2)">
        <circle id="Elipse_180-7" data-name="Elipse 180" cx="60.308" cy="60.308" r="60.308" transform="translate(96.59 32.5)" fill="#fff"/>
      </g>
    </g>
    <g id="Enmascarar_grupo_700350-2" data-name="Enmascarar grupo 700350" transform="translate(1089.235 9691.793)" clip-path="url(#clip-path-2)">
      <g id="Grupo_880022" data-name="Grupo 880022" transform="translate(23.03 28.034)">
        <path id="Trazado_602602" data-name="Trazado 602602" d="M1618.424,1013.205c.521,3.147-.926,4.856-4.157,4.866-4.312.014-8.624.025-12.936-.014a1.679,1.679,0,0,0-1.766,1.011,24.706,24.706,0,0,1-46.552-9.117c-.354-3.711-.116-7.48-.128-11.222q-.02-5.9,0-11.8c0-1.747.506-2.252,2.263-2.342a11.728,11.728,0,0,0,11.52-11.844c.054-2.551.383-2.881,2.885-2.882q8.1,0,16.206,0c2.41,0,2.807.4,2.827,2.8.053,6.425,4.055,11.194,10.113,12.153.994.157,1.37-.142,1.536-1.064a22.3,22.3,0,0,0,.131-3.827c.027-3.533,1.985-5.809,5.021-5.789s4.943,2.289,4.948,5.858c0,3.506.039,7.013-.018,10.518-.015.957.174,1.312,1.216,1.274,2.319-.084,4.643-.044,6.965-.021,3.378.033,5.329,2.648,4.3,5.84-.213.658.015.741.473,1,3.261,1.844,3.261,5.743.025,7.625-.312.182-.765.115-.569.844C1623.69,1010.682,1622.3,1012.6,1618.424,1013.205Zm-39.485,2.046a14.011,14.011,0,0,0,4.666.155c3,.3,3.1.216,3.116-2.742,0-.14.01-.281,0-.421a1.248,1.248,0,0,1,1.124-1.494c1.137.277,1,1.182,1.044,2.035.035.609-.305,1.327.485,1.773a7.57,7.57,0,0,0,3.676,1.348c6.608,0,13.217-.019,19.825-.032.707.013,1.419.08,2.121.027a1.333,1.333,0,0,0,1.39-1.467,1.3,1.3,0,0,0-1.382-1.321c-.706-.033-1.416.01-2.124.019q-1.746-.894-.239-2.15l4.51-.133a12.179,12.179,0,0,0,1.963.024,2.077,2.077,0,0,0-.133-4.137,15.336,15.336,0,0,0-1.826.06l-4.52-.135a1.128,1.128,0,0,1-.569-1.436c.252-.623.823-.677,1.419-.678,2.07,0,4.14-.031,6.209-.049a10.614,10.614,0,0,0,1.977,0,1.992,1.992,0,0,0,1.831-2.158,1.967,1.967,0,0,0-1.967-2.021,15.481,15.481,0,0,0-1.839.031c-2.072-.018-4.143-.044-6.214-.048-.6,0-1.167-.06-1.418-.684a1.128,1.128,0,0,1,.576-1.434l4.514-.131a14.252,14.252,0,0,0,1.965.037,1.9,1.9,0,0,0,1.823-1.983,1.946,1.946,0,0,0-1.69-2.113,4.906,4.906,0,0,0-2.1,0l-7.646-.124a3.174,3.174,0,0,1-1.188-.984c-.043-.611-.122-1.222-.125-1.834-.015-3.879.012-7.758-.028-11.637-.025-2.41-1.521-3.5-3.842-2.885a2.272,2.272,0,0,0-1.673,2.146q-.073,2.4-.147,4.805a7.54,7.54,0,0,1-2.4,4.714,38.13,38.13,0,0,1-9.119,5.661c-2.1.122-2.1.122-2.1,2.255q0,5.523.008,11.046a1.835,1.835,0,0,1-1.048.839c-1.031-.2-1.14-.929-1.135-1.815.024-4.123.012-8.245.01-12.368,0-2.1-.125-2.221-2.275-2.188-.281,0-.561.056-.841.086a16.375,16.375,0,0,0-4.264.065.533.533,0,0,0-.554.552,4.856,4.856,0,0,0-.14.824q-.012,10.477,0,20.955a1.42,1.42,0,0,0,.235,1.074Zm14.618-29.762.01,0c-.244-.509-.79-.64-1.2-.935a13.9,13.9,0,0,1-5.875-9.889c-.349-2.738-.313-2.742-3.187-2.553a.242.242,0,0,0-.271.009l-.3-.022q-6.67-.2-13.34,0l-.306.011c-.5.285-.246.764-.261,1.146a13.975,13.975,0,0,1-11.09,13.194c-.855.186-1.785-.043-2.571.476l-.048.3c-.137,7.341-.19,14.683.019,22.021a20.8,20.8,0,0,0,4.4,11.948c5.388,7.24,15.259,10.8,23.175,8.386a17.129,17.129,0,0,0,6.916-2.756,21.426,21.426,0,0,0,7.977-8.69h-3.125a10.087,10.087,0,0,1-4.655-.9c-.935-.537-1.734-.968-2.694.012-.455.464-1.218.406-1.886.405-2.067,0-4.134.017-6.2.028-.209-.04-.333.022-.316.258q-.041,4.113-.081,8.226c-.016,1.826-.24,2.047-2.055,1.987-9.356-.308-17.925-7.719-19.1-17-.919-7.285-.2-14.653-.333-21.982-.015-.823.515-1.151,1.295-1.169a12.425,12.425,0,0,0,12.158-12.472c-.032-.995.438-1.473,1.464-1.455q2.555.043,5.112,0c1.032-.019,1.461.466,1.459,1.459q-.012,4.828,0,9.655a1.327,1.327,0,0,1-1.013,1.5c-.952-.144-1.174-.771-1.164-1.634q.039-3.329,0-6.659c-.024-2.435.388-2.124-2.161-2.228-1.094-.045-1.495.216-1.679,1.39a14.6,14.6,0,0,1-11.788,12.4c-.479.1-1.063-.116-1.434.393l-.018.3q-.026,8.519-.051,17.037a19.232,19.232,0,0,0,.354,3.809,18.385,18.385,0,0,0,15.529,14.384c.839.094,1.3.023,1.276-1.044-.073-2.744-.051-5.491-.009-8.236.013-.825-.287-1.07-1.073-1.041-1.276.047-2.558.051-3.834,0a2.846,2.846,0,0,1-2.957-2.978q-.056-9.017,0-18.035a2.85,2.85,0,0,1,2.979-2.958,23.171,23.171,0,0,1,2.981.007c1.32.115,2.416-.111,3.041-1.42a4.228,4.228,0,0,1,1.851-.666c2.132-.007,4.264-.025,6.4,0a2.946,2.946,0,0,1,2.214,1.127c1.043,1.206,2.033,1.532,3.341.766a50.26,50.26,0,0,0,6.584-4.343l-3.818-1.306A.621.621,0,0,0,1593.558,985.489Zm-17.074,18.15c0-2.935-.037-5.87.022-8.8.018-.9-.249-1.146-1.115-1.092-1.179.073-2.366.035-3.549.013-.707-.013-1.038.261-1.036,1q.017,8.8,0,17.609c0,.731.314,1.022,1.028,1.008,1.136-.022,2.277-.07,3.407.015.976.074,1.3-.2,1.269-1.228C1576.435,1009.32,1576.484,1006.479,1576.484,1003.639Z" transform="translate(-1552.819 -969.864)" fill="#090b08"/>
        <path id="Trazado_602603" data-name="Trazado 602603" d="M1690.729,995.469a2.271,2.271,0,0,1,1.674-2.146,10.624,10.624,0,0,1,.617,4.723c-.015,2.748.007,5.5-.006,8.243-.018,3.606-.211,3.419,3.383,3.39a3.175,3.175,0,0,0,1.188.984c.278.661.869.429,1.342.434,2.1.023,4.209.009,6.313.009a2.621,2.621,0,0,1,.008,3.415c-.976,0-1.954-.042-2.926.014-.548.031-1.242-.328-1.6.437a1.128,1.128,0,0,0-.576,1.435c.25.624.819.683,1.418.684,2.072,0,4.143.03,6.214.048a3.916,3.916,0,0,1,0,4.143c-2.07.018-4.14.045-6.209.049-.6,0-1.167.056-1.419.678a1.128,1.128,0,0,0,.569,1.436c.218.611.748.443,1.184.45,1.116.018,2.232,0,3.349,0a2.619,2.619,0,0,1-.007,3.415c-.974,0-1.95-.041-2.921.015-.547.031-1.24-.327-1.6.437q-1.507,1.256.239,2.15a3.358,3.358,0,0,1,0,2.741c-6.608.013-13.217.036-19.825.033a7.57,7.57,0,0,1-3.676-1.349c-.791-.446-.451-1.163-.486-1.773-.048-.853.093-1.758-1.044-2.036q0-1.372,0-2.743a1.835,1.835,0,0,0,1.049-.839c.554-.352.384-.915.386-1.408.013-3,.005-6.008.007-9.011,0-1.19-.4-2.625,1.579-2.641.04,0,.08-.158.119-.242a38.127,38.127,0,0,0,9.119-5.661,7.539,7.539,0,0,0,2.4-4.714A6.833,6.833,0,0,0,1690.729,995.469Z" transform="translate(-1640.897 -986.649)" fill="#face9e"/>
        <path id="Trazado_602604" data-name="Trazado 602604" d="M1584.518,1023.052c2.067-.011,4.134-.03,6.2-.028.668,0,1.431.059,1.886-.405.959-.979,1.759-.548,2.694-.012a10.084,10.084,0,0,0,4.655.9,17.354,17.354,0,0,1-3.44,5.28,27.605,27.605,0,0,1-8.329,6.167c-7.916,2.413-17.787-1.147-23.175-8.386a20.793,20.793,0,0,1-4.4-11.948c-.209-7.338-.156-14.681-.019-22.021.182-.073.262-.161.048-.3.786-.52,1.715-.29,2.571-.476a13.976,13.976,0,0,0,11.09-13.194c.015-.382-.238-.861.261-1.146.109.211.211.2.306-.011q6.671-.2,13.34,0c.088.2.187.235.3.022a.242.242,0,0,1,.271-.009,12.194,12.194,0,0,0,2.6,8.87c1.969,2.437,4.335,4.312,7.656,4.508l-.01,0c.129.3.377.3.642.257l3.818,1.306a50.237,50.237,0,0,1-6.584,4.343c-1.308.766-2.3.439-3.341-.766a2.948,2.948,0,0,0-2.214-1.127c-2.132-.028-4.264-.01-6.4,0a4.232,4.232,0,0,0-1.851.665l0-3.485a1.327,1.327,0,0,0,1.012-1.5q-.018-4.827,0-9.655c0-.993-.427-1.477-1.459-1.459q-2.555.046-5.112,0c-1.025-.018-1.5.46-1.464,1.455a12.425,12.425,0,0,1-12.157,12.472c-.78.019-1.31.346-1.295,1.169.135,7.329-.586,14.7.333,21.982,1.171,9.281,9.741,16.692,19.1,17,1.816.059,2.04-.161,2.055-1.987q.036-4.113.081-8.226Z" transform="translate(-1558.296 -975.239)" fill="#79d2a1"/>
        <path id="Trazado_602605" data-name="Trazado 602605" d="M1594.043,1002.493l0,3.485c-.625,1.308-1.721,1.534-3.041,1.42a23.131,23.131,0,0,0-2.981-.007,2.85,2.85,0,0,0-2.979,2.958q-.06,9.017,0,18.035a2.846,2.846,0,0,0,2.957,2.978c1.276.051,2.558.048,3.834,0,.786-.029,1.085.216,1.073,1.041-.042,2.745-.064,5.492.008,8.236.028,1.066-.436,1.137-1.276,1.044a18.385,18.385,0,0,1-15.529-14.384,19.221,19.221,0,0,1-.354-3.809q.027-8.519.052-17.037c.195-.089.231-.188.018-.3.371-.509.955-.3,1.434-.393a14.6,14.6,0,0,0,11.788-12.4c.184-1.174.585-1.435,1.679-1.391,2.549.1,2.136-.207,2.161,2.229q.033,3.329,0,6.659C1592.87,1001.721,1593.091,1002.349,1594.043,1002.493Z" transform="translate(-1569.227 -985.679)" fill="#36a864"/>
        <path id="Trazado_602606" data-name="Trazado 602606" d="M1621.714,1063.668c0,2.84-.049,5.682.026,8.52.027,1.025-.293,1.3-1.269,1.228-1.13-.085-2.271-.037-3.407-.015-.714.014-1.03-.277-1.028-1.008q.017-8.8,0-17.609c0-.738.329-1.012,1.036-1,1.183.022,2.371.06,3.549-.013.866-.054,1.133.2,1.115,1.092C1621.676,1057.8,1621.714,1060.733,1621.714,1063.668Z" transform="translate(-1598.049 -1029.893)" fill="#fcd27c"/>
        <path id="Trazado_602607" data-name="Trazado 602607" d="M1644.093,1047.466a.533.533,0,0,1,.554-.552c1.389.569,2.842.113,4.257.264v23.028a27.314,27.314,0,0,0-4.66.174l-.06-.06a7.551,7.551,0,0,0,.161-1.111q.015-10.342.006-20.684C1644.351,1048.154,1644.424,1047.759,1644.093,1047.466Z" transform="translate(-1618.124 -1024.992)" fill="#fdf5e5"/>
        <path id="Trazado_602608" data-name="Trazado 602608" d="M1661,1069.815v-23.028q0-.164.007-.329c.28-.03.56-.082.841-.086,2.15-.033,2.274.087,2.274,2.188,0,4.123.014,8.245-.01,12.368-.005.886.1,1.617,1.135,1.815q0,1.372,0,2.743a1.248,1.248,0,0,0-1.124,1.494c.011.14,0,.281,0,.421-.016,2.958-.116,3.046-3.116,2.742Z" transform="translate(-1630.221 -1024.601)" fill="#e6e5e5"/>
        <path id="Trazado_602609" data-name="Trazado 602609" d="M1737.837,1009.256c-3.594.03-3.4.216-3.383-3.389.013-2.748-.009-5.5.006-8.243a10.623,10.623,0,0,0-.618-4.723c2.321-.614,3.818.475,3.842,2.885.04,3.879.012,7.758.028,11.637C1737.715,1008.034,1737.794,1008.645,1737.837,1009.256Z" transform="translate(-1682.338 -986.226)" fill="#f2af6d"/>
        <path id="Trazado_602610" data-name="Trazado 602610" d="M1670.13,990.98c-3.32-.2-5.687-2.07-7.656-4.508a12.2,12.2,0,0,1-2.6-8.87c2.874-.19,2.838-.185,3.187,2.553a13.9,13.9,0,0,0,5.874,9.889C1669.34,990.34,1669.886,990.471,1670.13,990.98Z" transform="translate(-1629.38 -975.35)" fill="#28ad5e"/>
        <path id="Trazado_602611" data-name="Trazado 602611" d="M1657.87,1150.976a27.6,27.6,0,0,0,8.329-6.166,17.351,17.351,0,0,0,3.44-5.28h3.125a21.425,21.425,0,0,1-7.977,8.69A17.125,17.125,0,0,1,1657.87,1150.976Z" transform="translate(-1627.981 -1091.256)" fill="#28a95d"/>
        <path id="Trazado_602612" data-name="Trazado 602612" d="M1787.865,1081.038a3.916,3.916,0,0,0,0-4.143,15.453,15.453,0,0,1,1.839-.031,1.967,1.967,0,0,1,1.968,2.021,1.992,1.992,0,0,1-1.831,2.158A10.633,10.633,0,0,1,1787.865,1081.038Z" transform="translate(-1720.99 -1046.405)" fill="#f0ae6b"/>
        <path id="Trazado_602613" data-name="Trazado 602613" d="M1778.945,1058.147a2.62,2.62,0,0,0-.008-3.415q0-.16-.009-.319a4.906,4.906,0,0,1,2.1,0,1.946,1.946,0,0,1,1.69,2.113,1.9,1.9,0,0,1-1.823,1.983,14.273,14.273,0,0,1-1.966-.038Q1778.938,1058.306,1778.945,1058.147Z" transform="translate(-1714.596 -1030.274)" fill="#f0ae6b"/>
        <path id="Trazado_602614" data-name="Trazado 602614" d="M1778.936,1103.217a2.619,2.619,0,0,0,.007-3.415q-.007-.16-.013-.319a15.313,15.313,0,0,1,1.826-.06,2.077,2.077,0,0,1,.133,4.137,12.2,12.2,0,0,1-1.963-.024C1778.929,1103.429,1778.932,1103.323,1778.936,1103.217Z" transform="translate(-1714.594 -1062.55)" fill="#f0ae6b"/>
        <path id="Trazado_602615" data-name="Trazado 602615" d="M1763.9,1124.6a3.359,3.359,0,0,0,0-2.741c.708-.01,1.418-.052,2.124-.019a1.3,1.3,0,0,1,1.382,1.321,1.333,1.333,0,0,1-1.39,1.467C1765.316,1124.681,1764.6,1124.615,1763.9,1124.6Z" transform="translate(-1703.841 -1078.592)" fill="#f0ae6b"/>
        <path id="Trazado_602616" data-name="Trazado 602616" d="M1643.719,1048.854c.331.293.258.688.258,1.058q0,10.342-.006,20.684a7.558,7.558,0,0,1-.161,1.111,1.419,1.419,0,0,1-.236-1.074q0-10.477.005-20.955A4.875,4.875,0,0,1,1643.719,1048.854Z" transform="translate(-1617.75 -1026.38)" fill="#f7f9fa"/>
        <path id="Trazado_602617" data-name="Trazado 602617" d="M1681.685,1054.221c-.039.084-.079.241-.119.241-1.981.015-1.578,1.451-1.579,2.641,0,3,.006,6.008-.007,9.011,0,.493.168,1.056-.386,1.408q0-5.523-.008-11.046C1679.585,1054.343,1679.586,1054.343,1681.685,1054.221Z" transform="translate(-1643.518 -1030.22)" fill="#fedfab"/>
        <path id="Trazado_602618" data-name="Trazado 602618" d="M1759.7,1054.393c0,.106.006.213.009.319-2.1,0-4.209.014-6.313-.009-.473,0-1.064.227-1.342-.434Z" transform="translate(-1695.369 -1030.254)" fill="#fedfab"/>
        <path id="Trazado_602619" data-name="Trazado 602619" d="M1727.592,1000.865a6.833,6.833,0,0,1-.147,4.806Z" transform="translate(-1677.76 -992.045)" fill="#fedfab"/>
        <path id="Trazado_602620" data-name="Trazado 602620" d="M1767.6,1067.719q-.007.159-.014.32l-4.514.131c.36-.765,1.054-.406,1.6-.437C1765.648,1067.677,1766.625,1067.718,1767.6,1067.719Z" transform="translate(-1703.252 -1039.846)" fill="#fedfab"/>
        <path id="Trazado_602621" data-name="Trazado 602621" d="M1767.574,1099.331c0,.106.009.213.013.319-1.116,0-2.233.014-3.349,0-.436-.007-.966.161-1.184-.45Z" transform="translate(-1703.238 -1062.399)" fill="#fedfab"/>
        <path id="Trazado_602622" data-name="Trazado 602622" d="M1767.593,1112.689c0,.106-.007.213-.01.319l-4.51.133c.359-.764,1.052-.406,1.6-.437C1765.643,1112.649,1766.619,1112.689,1767.593,1112.689Z" transform="translate(-1703.252 -1072.023)" fill="#fedfab"/>
        <path id="Trazado_602623" data-name="Trazado 602623" d="M1649.284,1128.737l.007.328a14.019,14.019,0,0,1-4.666-.154A27.336,27.336,0,0,1,1649.284,1128.737Z" transform="translate(-1618.504 -1083.523)" fill="#f7f9fa"/>
        <path id="Trazado_602624" data-name="Trazado 602624" d="M1650.3,1046.415q0,.164-.007.329c-1.415-.151-2.868.306-4.257-.264A16.364,16.364,0,0,1,1650.3,1046.415Z" transform="translate(-1619.516 -1024.558)" fill="#f7f9fa"/>
        <path id="Trazado_602625" data-name="Trazado 602625" d="M1696.646,1025c-.266.044-.513.041-.642-.257A.622.622,0,0,1,1696.646,1025Z" transform="translate(-1655.265 -1009.122)" fill="#28ad5e"/>
        <path id="Trazado_602626" data-name="Trazado 602626" d="M1610.3,977.735c-.1.206-.2.222-.306.011Z" transform="translate(-1593.729 -975.495)" fill="#84e6b0"/>
        <path id="Trazado_602627" data-name="Trazado 602627" d="M1658.262,977.755c-.117.213-.216.175-.3-.022Z" transform="translate(-1628.044 -975.494)" fill="#84e6b0"/>
        <path id="Trazado_602628" data-name="Trazado 602628" d="M1560.946,1029.848c.214.136.134.225-.048.3Z" transform="translate(-1558.599 -1012.781)" fill="#84e6b0"/>
        <path id="Trazado_602629" data-name="Trazado 602629" d="M1575.952,1041.82c.213.113.177.212-.018.3Q1575.943,1041.971,1575.952,1041.82Z" transform="translate(-1569.357 -1021.347)" fill="#3bb66c"/>
        <path id="Trazado_602630" data-name="Trazado 602630" d="M1644.183,1137.885l-.316.258C1643.849,1137.908,1643.974,1137.846,1644.183,1137.885Z" transform="translate(-1617.961 -1090.072)" fill="#84e6b0"/>
      </g>
    </g>
    <g id="Grupo_875625-3" data-name="Grupo 875625" transform="translate(1021.314 9830.574)">
      <g transform="matrix(1, 0, 0, 1, -32.5, -178.25)" filter="url(#Elipse_180-3)">
        <circle id="Elipse_180-8" data-name="Elipse 180" cx="60.308" cy="60.308" r="60.308" transform="translate(32.5 178.25)" fill="#fff"/>
      </g>
    </g>
    <g id="Enmascarar_grupo_700350-3" data-name="Enmascarar grupo 700350" transform="translate(1025.145 9837.547)" clip-path="url(#clip-path-3)">
      <g id="Grupo_880025" data-name="Grupo 880025" transform="translate(30.353 26.439)">
        <path id="Trazado_602671" data-name="Trazado 602671" d="M2790.274,975.589c-1.807.107-2.311-.314-2.333-2.019q-.031-2.524,0-5.049c.017-1.533.2-1.745,1.877-2.208a14.5,14.5,0,0,1-4.5-7.233,15.194,15.194,0,0,1-.46-3.563c-.009-3.9-.022-7.79,0-11.686.021-3.478,2.23-5.427,5.676-4.955.6.083.71-.126.931-.544a4.438,4.438,0,0,1,5.115-2.551c.59.11.809-.044,1.073-.568a4.35,4.35,0,0,1,4.715-2.566c.768.091,1-.063.966-.847-.06-1.247-.048-2.5-.007-3.75a4.6,4.6,0,0,1,4.639-4.691,4.538,4.538,0,0,1,4.577,4.724c.041,5.626.014,11.253.015,16.879v1.583c1.166-.723,2.132-1.416,3.177-1.952a6.661,6.661,0,0,1,7.569.676c2.682,2.053,2.935,4.979.656,7.488q-5.722,6.3-11.5,12.548c-.542.589-1.214,1.083-.177,1.852.408.3.285.89.288,1.365.009,1.683.02,3.366,0,5.049-.021,1.7-.527,2.124-2.334,2.017-1.346-1.365-.772-3.09-.8-4.668-.017-1.078-.327-1.39-1.4-1.379-5.046.051-10.094.081-15.138-.014-1.461-.027-1.917.353-1.838,1.828C2791.141,972.789,2791.536,974.371,2790.274,975.589Zm19.075-47.836a1.267,1.267,0,0,0-1.548-1.276c-1.05.1-1.378.873-1.376,1.855q.013,7.908,0,15.817c0,1.494-.594,2.349-1.607,2.237-1.3-.144-1.518-1.095-1.508-2.206.02-2.3.011-4.6-.006-6.9a1.425,1.425,0,0,0-1.361-1.569,1.273,1.273,0,0,0-1.548,1.277q-.089,4.168-.178,8.336c-.443.776-1.021,1.3-1.989.964s-1.061-1.125-1.049-1.988c.015-1.154-.008-2.308.007-3.461.013-1.071-.267-2.028-1.49-2.059-1.321-.033-1.614.957-1.6,2.088.011,1.346.018,2.692-.022,4.037a1.411,1.411,0,0,1-1.465,1.472,1.426,1.426,0,0,1-1.542-1.392c-.055-.426-.041-.862-.053-1.294-.031-1.029-.372-1.852-1.559-1.818-1.17.034-1.491.853-1.489,1.889.011,4.086-.055,8.174.035,12.258a10.537,10.537,0,0,0,8.626,10.149,32.851,32.851,0,0,0,8.478.122,6.179,6.179,0,0,0,4.062-2q6.386-6.86,12.7-13.79a1.648,1.648,0,0,0-.135-2.542,3.8,3.8,0,0,0-4.895-.458c-1.55.962-3.051,2-4.561,3.029-1.138.773-2.059.65-2.752-.59-.017-5.959-.022-11.917-.058-17.876A25.432,25.432,0,0,0,2809.349,927.753Z" transform="translate(-2781.835 -901.811)" fill="#070605"/>
        <path id="Trazado_602672" data-name="Trazado 602672" d="M2803.647,1089.326c1.261-1.218.867-2.8.791-4.232-.079-1.475.377-1.856,1.838-1.828,5.044.095,10.092.065,15.138.014,1.072-.011,1.383.3,1.4,1.379.024,1.578-.55,3.3.8,4.668Z" transform="translate(-2795.208 -1015.548)" fill="#455a64"/>
        <path id="Trazado_602673" data-name="Trazado 602673" d="M2849.143,912.418a1.436,1.436,0,0,1-1.464,1.643c-1.219.063-1.537-.82-1.639-1.911a7.672,7.672,0,0,0-15.315-.131c-.179,1.555-.922,2.34-1.965,2.018-1.011-.312-1.21-1.112-1.133-2.062a10.363,10.363,0,0,1,6.365-9.209,10.235,10.235,0,0,1,11.314,1.6A10.607,10.607,0,0,1,2849.143,912.418Z" transform="translate(-2812.254 -886.433)" fill="#080808"/>
        <path id="Trazado_602674" data-name="Trazado 602674" d="M2862.616,853.386c0,.959.033,1.919-.009,2.876-.044.995-.55,1.677-1.6,1.634a1.456,1.456,0,0,1-1.454-1.632q-.025-2.948,0-5.9a1.462,1.462,0,0,1,1.452-1.636c1.056-.045,1.559.645,1.6,1.635S2862.616,852.38,2862.616,853.386Z" transform="translate(-2834.96 -848.73)" fill="#0c0c0c"/>
        <path id="Trazado_602675" data-name="Trazado 602675" d="M2800.663,873.645a1.845,1.845,0,0,1,1.424.6q1.992,1.978,3.97,3.969c.736.745.973,1.591.154,2.393a1.485,1.485,0,0,1-2.288-.163q-2.052-2.02-4.072-4.071a1.572,1.572,0,0,1-.4-1.843A1.475,1.475,0,0,1,2800.663,873.645Z" transform="translate(-2792.123 -866.451)" fill="#0e0e0e"/>
        <path id="Trazado_602676" data-name="Trazado 602676" d="M2778.949,936.906c-.957,0-1.915.019-2.872,0-1.011-.025-1.668-.534-1.659-1.574a1.463,1.463,0,0,1,1.6-1.5c2.009-.044,4.022-.05,6.03.014a1.428,1.428,0,0,1,1.513,1.567,1.458,1.458,0,0,1-1.592,1.491C2780.961,936.933,2779.955,936.905,2778.949,936.906Z" transform="translate(-2774.418 -909.232)" fill="#0a0a0a"/>
        <path id="Trazado_602677" data-name="Trazado 602677" d="M2928.255,936.9c-1.006,0-2.014.029-3.02-.006a1.464,1.464,0,0,1-1.6-1.488,1.43,1.43,0,0,1,1.516-1.572c2.059-.065,4.123-.065,6.181.01a1.427,1.427,0,0,1,1.465,1.62,1.453,1.453,0,0,1-1.523,1.424C2930.269,936.925,2929.261,936.894,2928.255,936.9Z" transform="translate(-2880.552 -909.226)" fill="#0b0b0b"/>
        <path id="Trazado_602678" data-name="Trazado 602678" d="M2912.164,875.158a2.132,2.132,0,0,1-.659,1.31q-1.93,1.935-3.865,3.865c-.726.727-1.552,1.074-2.392.274-.911-.867-.534-1.719.239-2.486,1.327-1.317,2.641-2.648,3.978-3.954a1.465,1.465,0,0,1,1.832-.348A1.622,1.622,0,0,1,2912.164,875.158Z" transform="translate(-2867.096 -866.443)" fill="#090909"/>
        <path id="Trazado_602679" data-name="Trazado 602679" d="M2808.038,944.644a1.273,1.273,0,0,1,1.548-1.277,1.424,1.424,0,0,1,1.36,1.569c.017,2.3.026,4.6.006,6.9-.01,1.111.207,2.061,1.508,2.206,1.012.112,1.6-.743,1.607-2.237q.011-7.909,0-15.817c0-.982.327-1.752,1.376-1.855a1.267,1.267,0,0,1,1.548,1.276c-.311.238-.292.582-.292.919q0,10.091,0,20.182c0,.414-.11.9.455,1.084.694,1.241,1.614,1.364,2.752.59,1.51-1.026,3.011-2.068,4.561-3.029a3.8,3.8,0,0,1,4.895.458,1.648,1.648,0,0,1,.134,2.542q-6.331,6.911-12.7,13.79a6.179,6.179,0,0,1-4.062,2,32.849,32.849,0,0,1-8.478-.122,10.536,10.536,0,0,1-8.626-10.149c-.09-4.084-.024-8.172-.035-12.258,0-1.036.319-1.855,1.488-1.889,1.188-.034,1.529.788,1.56,1.817.013.432,0,.868.053,1.294a1.426,1.426,0,0,0,1.542,1.392,1.411,1.411,0,0,0,1.465-1.472c.04-1.345.033-2.692.023-4.037-.009-1.131.284-2.12,1.6-2.088,1.224.031,1.5.988,1.491,2.059-.015,1.154.009,2.308-.007,3.461-.012.863.087,1.659,1.049,1.988s1.546-.187,1.989-.964c.638-.221.458-.772.463-1.22.019-1.441.055-2.885-.009-4.323C2808.272,946.506,2808.621,945.524,2808.038,944.644Z" transform="translate(-2789.475 -909.468)" fill="#fcca7f"/>
        <path id="Trazado_602680" data-name="Trazado 602680" d="M2869.151,960.765c-.566-.187-.455-.67-.455-1.084q-.008-10.091,0-20.182c0-.337-.019-.68.292-.919a25.432,25.432,0,0,1,.109,4.309C2869.129,948.847,2869.134,954.806,2869.151,960.765Z" transform="translate(-2841.469 -912.638)" fill="#fedb89"/>
        <path id="Trazado_602681" data-name="Trazado 602681" d="M2838.269,970.564c.583.88.234,1.861.276,2.792.064,1.439.028,2.882.009,4.323-.006.448.175,1-.463,1.22Q2838.179,974.732,2838.269,970.564Z" transform="translate(-2819.706 -935.387)" fill="#fedb89"/>
      </g>
    </g>
    <g id="Grupo_875625-4" data-name="Grupo 875625" transform="translate(1299.383 9853.316)">
      <g transform="matrix(1, 0, 0, 1, -310.57, -201)" filter="url(#Elipse_180-4)">
        <circle id="Elipse_180-9" data-name="Elipse 180" cx="60.308" cy="60.308" r="60.308" transform="translate(310.57 201)" fill="#fff"/>
      </g>
    </g>
    <g id="Enmascarar_grupo_700350-4" data-name="Enmascarar grupo 700350" transform="translate(1303.213 9860.289)" clip-path="url(#clip-path-4)">
      <g id="Grupo_880023" data-name="Grupo 880023" transform="translate(22.392 29.454)">
        <path id="Trazado_602631" data-name="Trazado 602631" d="M1957.995,961.089a1.188,1.188,0,0,1-1.094-1.265,76.108,76.108,0,0,1-.069-10.233,1.477,1.477,0,0,1,1.525-1.6,51.116,51.116,0,0,0,24.568-9.65,1.336,1.336,0,0,1,1.8.034,50.9,50.9,0,0,0,24.444,9.6c1.038.124,1.533.528,1.6,1.667a68.968,68.968,0,0,1-4.957,31.083c-.37.878-.2,1.187.573,1.585a24.89,24.89,0,0,1,4.258,2.934c1.065.87,1.457,1.744.547,2.912-.627.8-.447,1.292.426,1.828,1.848,1.135,3.632,2.376,5.417,3.609,1.172.809,1.145,1.469-.079,2.176-1.418.819-2.842,1.634-4.308,2.361a1.421,1.421,0,0,0-.893,1.542c.056,1.594.04,3.192.009,4.788-.024,1.222-.676,1.638-1.713,1.038-3.563-2.062-7.1-4.169-10.648-6.259a1.1,1.1,0,0,1-.495-1.669c.13-.231.224-.481.339-.72.941-1.97.647-2.476-1.569-2.966-.666-.147-.866.329-1.184.633a38.672,38.672,0,0,1-11.6,7.608,2.5,2.5,0,0,1-2.147.009,38.245,38.245,0,0,1-11.6-7.612c-.68-.656-2.982-.4-3.483.386-.251.394.1.68.24.963,1.512,3.092,1.567,2.6-1.389,4.363q-4.279,2.548-8.578,5.064c-1.5.878-2.078.534-2.087-1.217-.008-1.419-.079-2.844.025-4.255a1.664,1.664,0,0,0-1.116-1.815c-1.344-.674-2.65-1.426-3.958-2.171-1.393-.793-1.434-1.427-.133-2.316,1.828-1.249,3.659-2.5,5.532-3.678.667-.42.773-.735.384-1.446-1.031-1.888-.991-1.909.584-3.3a18.887,18.887,0,0,1,4.162-2.834c.811-.4.789-.773.464-1.515a60.4,60.4,0,0,1-4.3-15.57c-.12-.822-.378-1.722.745-2.12a1.255,1.255,0,0,1,1.148,1.24c.124,1.008.3,2.011.485,3.011,1.6,8.753,4.657,16.863,10.641,23.632a32.788,32.788,0,0,0,12.215,8.891,1.685,1.685,0,0,0,2.061.148,36.466,36.466,0,0,0,18.483-18.483c4.4-9.393,5.829-19.364,5.576-29.642-.05-2.013-.057-2.013-2.161-2.1a1.936,1.936,0,0,0-.369-.145,53.69,53.69,0,0,1-21.917-9,.915.915,0,0,0-1.264.059,53.16,53.16,0,0,1-23.253,9.126c-.78.11-1.121.352-1.132,1.224-.034,2.791-.04,5.58.129,8.366C1958.922,960.162,1958.874,960.83,1957.995,961.089Zm48.216,23.5c-1.658-1.081-1.652-1.078-2.571.6a40.963,40.963,0,0,1-3.924,5.8c-.984,1.236-.986,1.235.507,1.739a27.155,27.155,0,0,1,4.076,2.454c.632.525.841.25,1.132-.328.814-1.617,1.675-3.211,2.522-4.811,1.81-3.42,1.811-3.419-1.616-5.407A.573.573,0,0,0,2006.21,984.586Zm-44.821,0a14.939,14.939,0,0,0-2.728,1.858.832.832,0,0,0-.243,1.239c1.3,2.412,2.557,4.843,3.812,7.277.241.467.429.725.959.289a28.292,28.292,0,0,1,4.186-2.529c1.5-.509,1.492-.505.5-1.736a45.123,45.123,0,0,1-3.917-5.8C1963.011,983.526,1963.027,983.517,1961.389,984.585Zm3.6,14.232a11.429,11.429,0,0,0-1.59-.312,2.633,2.633,0,0,1-2.508-1.775c-.749-1.649-1.683-3.213-2.493-4.836-.313-.627-.622-.751-1.212-.337q-1.848,1.3-3.75,2.513c-.611.394-.593.651.048.983,1.06.55,2.077,1.185,3.147,1.714a1.865,1.865,0,0,1,1.174,1.989c-.075,1.351-.019,2.709-.019,4.3Zm49.937-4.234c-1.706-1.135-3.24-2.157-4.776-3.176-.513-.34-.7.042-.89.412-.569,1.1-1.206,2.172-1.7,3.308-.861,2-1.906,3.693-4.441,3.593-.067,0-.137.081-.325.2l7.021,4.14c0-1.663.036-3.07-.014-4.473a1.64,1.64,0,0,1,.97-1.7C2012.1,996.192,2013.394,995.436,2014.924,994.583Z" transform="translate(-1949.713 -938.014)" fill="#080605"/>
        <path id="Trazado_602632" data-name="Trazado 602632" d="M2005.541,1006.406a32.786,32.786,0,0,1-12.215-8.891c-5.984-6.769-9.039-14.879-10.641-23.632-.183-1-.361-2-.485-3.011a1.255,1.255,0,0,0-1.148-1.24q-.12-.99-.238-1.979c.88-.258.927-.927.88-1.689-.17-2.786-.163-5.575-.129-8.366.01-.872.352-1.115,1.132-1.224a53.161,53.161,0,0,0,23.253-9.126.915.915,0,0,1,1.264-.059,53.689,53.689,0,0,0,21.917,9,1.929,1.929,0,0,1,.369.145,87.583,87.583,0,0,1-.837,12.537,59.387,59.387,0,0,1-6.736,21.225,40.109,40.109,0,0,1-10.329,12.287C2009.674,1003.884,2007.561,1005.067,2005.541,1006.406Zm-10.677-14.741c.422.515.555,1.312,1.389,1.425-.7.665-.593,1.261.068,1.918a29.319,29.319,0,0,0,9.551,6.36,1.824,1.824,0,0,0,1.521-.016,28.686,28.686,0,0,0,11.736-8.863c4.675-5.959,6.856-12.9,7.9-20.285a1.373,1.373,0,0,0-.729-1.428q.01-.97.02-1.94a1.382,1.382,0,0,0,1.124-1.544c.044-1.951.032-3.9-.009-5.848a1.635,1.635,0,0,0-1.691-1.878,38.226,38.226,0,0,1-17.99-7.037,1.658,1.658,0,0,0-2.253-.009,38.126,38.126,0,0,1-17.987,7.042,1.651,1.651,0,0,0-1.706,1.867,60.49,60.49,0,0,0,.909,13.766,41.4,41.4,0,0,0,6.208,15.7C1993.409,991.616,1993.91,992.181,1994.864,991.665Z" transform="translate(-1972.532 -944.58)" fill="#f0b63b"/>
        <path id="Trazado_602633" data-name="Trazado 602633" d="M2073.675,1032.225c2.02-1.339,4.133-2.523,6.057-4.023a40.109,40.109,0,0,0,10.329-12.287,59.383,59.383,0,0,0,6.736-21.225,87.654,87.654,0,0,0,.837-12.537c2.1.084,2.111.084,2.161,2.1.253,10.277-1.175,20.248-5.576,29.642a36.465,36.465,0,0,1-18.483,18.482A1.684,1.684,0,0,1,2073.675,1032.225Z" transform="translate(-2040.666 -970.399)" fill="#eb9124"/>
        <path id="Trazado_602634" data-name="Trazado 602634" d="M1974.013,1145.687l-7.2,4.243c0-1.594-.056-2.952.019-4.3a1.865,1.865,0,0,0-1.174-1.989c-1.07-.529-2.087-1.164-3.147-1.714-.641-.332-.659-.589-.048-.983q1.9-1.222,3.75-2.513c.591-.414.9-.29,1.212.337.81,1.623,1.744,3.187,2.493,4.836a2.633,2.633,0,0,0,2.508,1.775A11.451,11.451,0,0,1,1974.013,1145.687Z" transform="translate(-1958.739 -1084.884)" fill="#ad2223"/>
        <path id="Trazado_602635" data-name="Trazado 602635" d="M2161.192,1141.337c-1.53.853-2.824,1.609-4.15,2.3a1.639,1.639,0,0,0-.97,1.7c.05,1.4.014,2.81.014,4.473l-7.021-4.14c.188-.119.258-.2.325-.2,2.535.1,3.58-1.6,4.441-3.593.49-1.135,1.127-2.207,1.7-3.308.192-.371.377-.752.89-.412C2157.952,1139.179,2159.486,1140.2,2161.192,1141.337Z" transform="translate(-2095.98 -1084.768)" fill="#ad2223"/>
        <path id="Trazado_602636" data-name="Trazado 602636" d="M1990.889,1121.042a28.292,28.292,0,0,0-4.187,2.529c-.53.436-.718.178-.959-.289-1.255-2.434-2.516-4.865-3.812-7.277a.832.832,0,0,1,.242-1.239,14.954,14.954,0,0,1,2.728-1.858A50.9,50.9,0,0,0,1990.889,1121.042Z" transform="translate(-1973.225 -1066.337)" fill="#e53133"/>
        <path id="Trazado_602637" data-name="Trazado 602637" d="M2145.386,1112.912a.568.568,0,0,1,.127.038c3.427,1.988,3.426,1.987,1.616,5.407-.847,1.6-1.708,3.194-2.522,4.811-.29.577-.5.853-1.132.328a27.113,27.113,0,0,0-4.077-2.454A50.972,50.972,0,0,0,2145.386,1112.912Z" transform="translate(-2088.889 -1066.34)" fill="#e53133"/>
        <path id="Trazado_602638" data-name="Trazado 602638" d="M1999.55,1119.014a50.893,50.893,0,0,1-5.987-8.134c1.638-1.068,1.622-1.059,2.573.6a45.1,45.1,0,0,0,3.917,5.8C2001.042,1118.509,2001.047,1118.5,1999.55,1119.014Z" transform="translate(-1981.886 -1064.309)" fill="#ae2223"/>
        <path id="Trazado_602639" data-name="Trazado 602639" d="M2142.1,1110.853a51.01,51.01,0,0,1-5.988,8.131c-1.493-.5-1.491-.5-.507-1.739a40.975,40.975,0,0,0,3.924-5.8C2140.45,1109.776,2140.444,1109.772,2142.1,1110.853Z" transform="translate(-2085.604 -1064.281)" fill="#ae2223"/>
        <path id="Trazado_602640" data-name="Trazado 602640" d="M2045.374,989.468q-.01.97-.02,1.94c-.946.057-1.225.653-1.34,1.5a45.437,45.437,0,0,1-2.586,10.406c-2.834,7.3-7.5,12.962-14.683,16.375a2.192,2.192,0,0,1-2.106.02,27.735,27.735,0,0,1-7.605-5.262c-.487-.482-.953-.943-1.722-.725-.834-.113-.967-.91-1.389-1.425a1.351,1.351,0,0,0-.141-1.7,28.25,28.25,0,0,1-1.617-2.586c-4.261-7.76-5.516-16.168-5.363-24.886.015-.877.459-.977,1.134-1.079a40.6,40.6,0,0,0,16.911-6.621,1.177,1.177,0,0,1,1.6-.05,40,40,0,0,0,17.027,6.669c.848.124,1.1.461,1.07,1.276-.058,1.548-.043,3.1-.032,4.65C2044.52,988.612,2044.482,989.318,2045.374,989.468Zm-22.422,16.85a3.255,3.255,0,0,0,2.526-1q5.7-5.682,11.376-11.392a3.245,3.245,0,0,0,.929-3.052,3.332,3.332,0,0,0-2.329-2.669,3.425,3.425,0,0,0-3.665.929c-2.58,2.563-5.2,5.091-7.691,7.738-.922.98-1.452.915-2.225-.058a18.934,18.934,0,0,0-1.965-1.983,3.49,3.49,0,1,0-4.9,4.959c1.791,1.847,3.627,3.649,5.452,5.462A3.337,3.337,0,0,0,2022.953,1006.318Z" transform="translate(-1991.591 -965.212)" fill="#fcd956"/>
        <path id="Trazado_602641" data-name="Trazado 602641" d="M2039.909,982.945c-.893-.15-.854-.857-.859-1.5-.011-1.55-.026-3.1.032-4.65.031-.814-.222-1.152-1.07-1.275a40,40,0,0,1-17.027-6.669,1.178,1.178,0,0,0-1.6.05,40.594,40.594,0,0,1-16.911,6.621c-.675.1-1.118.2-1.134,1.079-.153,8.718,1.1,17.126,5.363,24.886a28.306,28.306,0,0,0,1.618,2.586,1.351,1.351,0,0,1,.141,1.7c-.953.516-1.455-.049-1.943-.768a41.4,41.4,0,0,1-6.208-15.7,60.478,60.478,0,0,1-.909-13.767,1.651,1.651,0,0,1,1.707-1.867,38.126,38.126,0,0,0,17.987-7.042,1.658,1.658,0,0,1,2.253.009,38.226,38.226,0,0,0,17.99,7.036,1.635,1.635,0,0,1,1.69,1.878c.042,1.951.053,3.9.009,5.848A1.383,1.383,0,0,1,2039.909,982.945Z" transform="translate(-1986.125 -958.69)" fill="#080702"/>
        <path id="Trazado_602642" data-name="Trazado 602642" d="M2037.479,1058.7c.768-.218,1.234.243,1.722.725a27.73,27.73,0,0,0,7.606,5.262,2.191,2.191,0,0,0,2.106-.02c7.185-3.413,11.848-9.071,14.683-16.375a45.429,45.429,0,0,0,2.586-10.406c.115-.848.395-1.444,1.34-1.5a1.373,1.373,0,0,1,.728,1.428c-1.04,7.383-3.221,14.326-7.9,20.285a28.688,28.688,0,0,1-11.736,8.863,1.824,1.824,0,0,1-1.521.016,29.318,29.318,0,0,1-9.551-6.36C2036.886,1059.965,2036.783,1059.369,2037.479,1058.7Z" transform="translate(-2013.758 -1010.194)" fill="#090702"/>
        <path id="Trazado_602643" data-name="Trazado 602643" d="M2042.389,1041.94a3.337,3.337,0,0,1-2.492-1.067c-1.824-1.814-3.661-3.615-5.452-5.462a3.49,3.49,0,1,1,4.9-4.959,18.97,18.97,0,0,1,1.965,1.983c.773.973,1.3,1.038,2.225.058,2.491-2.648,5.11-5.175,7.691-7.738a3.425,3.425,0,0,1,3.665-.929,3.332,3.332,0,0,1,2.329,2.669,3.246,3.246,0,0,1-.929,3.052q-5.667,5.718-11.377,11.392A3.255,3.255,0,0,1,2042.389,1041.94Zm12.861-14.91a2.635,2.635,0,0,0-.194-.621c-.535-.965-1.606-1.022-2.56-.078-2.962,2.931-5.92,5.867-8.835,8.846-.885.9-1.581.923-2.434-.006-.989-1.076-2.061-2.076-3.094-3.113-.741-.745-1.571-1.132-2.417-.25-.777.811-.449,1.625.259,2.334,1.724,1.725,3.431,3.466,5.18,5.165.96.933,1.654.919,2.637-.056q5.383-5.338,10.728-10.715A2.007,2.007,0,0,0,2055.25,1027.031Z" transform="translate(-2011.027 -1000.835)" fill="#040502"/>
        <path id="Trazado_602644" data-name="Trazado 602644" d="M2060.728,1032.6a2.008,2.008,0,0,1-.73,1.505q-5.36,5.362-10.728,10.715c-.983.975-1.677.989-2.637.056-1.749-1.7-3.457-3.44-5.18-5.165-.708-.709-1.036-1.524-.259-2.334.845-.882,1.675-.494,2.416.251,1.032,1.037,2.1,2.037,3.094,3.113.854.929,1.549.91,2.434.006,2.915-2.979,5.873-5.914,8.836-8.846.953-.944,2.024-.887,2.56.079A2.631,2.631,0,0,1,2060.728,1032.6Z" transform="translate(-2016.505 -1006.4)" fill="#00b269"/>
      </g>
    </g>
    <g id="Grupo_875625-5" data-name="Grupo 875625" transform="translate(1147.781 9946.35)">
      <g transform="matrix(1, 0, 0, 1, -158.97, -294.03)" filter="url(#Elipse_180-5)">
        <circle id="Elipse_180-10" data-name="Elipse 180" cx="60.308" cy="60.308" r="60.308" transform="translate(158.97 294.03)" fill="#fff"/>
      </g>
    </g>
    <g id="Enmascarar_grupo_700350-5" data-name="Enmascarar grupo 700350" transform="translate(1151.611 9953.322)" clip-path="url(#clip-path-5)">
      <g id="Grupo_880024" data-name="Grupo 880024" transform="translate(21.513 6.546)">
        <path id="Trazado_602645" data-name="Trazado 602645" d="M2365.954,929.558a11.287,11.287,0,0,1-3.486-6.2c-.087-.52-.428-.475-.789-.557-3.974-.9-5.44-4.652-3.067-7.914a2.487,2.487,0,0,0,.44-1.534,27.126,27.126,0,0,1,.286-5.781,11.021,11.021,0,0,1,10.332-8.477c1.151-.04,2.3-.031,3.456,0,1.273.033,2.693.239,3.436,1.2,1.44,1.861,3.152.686,4.74.768.646.034.5-.688.632-1.074a8.667,8.667,0,1,1,6.29,11.139c-.923-.193-1.113-.049-1.068.84a8.879,8.879,0,0,0,.818,4.086,4.676,4.676,0,0,1-3.432,6.677c-.754.157-1.038.38-1.2,1.136-.452,2.054-1.006,2.927-3.229,5.687,1.936,0,3.754-.008,5.572,0,2.085.012,2.627.554,2.647,2.625a15.393,15.393,0,0,1-.006,1.658c-.2,2.068-.116,3.67,2.614,4.18,1.89.353,2.65,2.246,2.753,4.2.194,3.681.463,7.359.585,11.042.042,1.253.309,1.749,1.7,1.675,2.528-.135,5.067-.052,7.6-.033,1.69.013,2.231.668,2.211,2.588-.018,1.761-.594,2.391-2.27,2.391q-30.552.008-61.1,0c-1.721,0-2.277-.645-2.27-2.529.007-1.8.563-2.5,2.21-2.428,1.258.052,2.013,0,1.917-1.652a2.806,2.806,0,0,1,2.871-2.781,29.974,29.974,0,0,1,3.592,0c.876.063,1.09-.271,1.12-1.072.087-2.3.256-4.6.372-6.9.143-2.834,1.316-4.394,4.038-4.989,1.077-.236,1.437-.66,1.355-1.735-.094-1.237-.033-2.487-.018-3.731.022-1.9.6-2.494,2.479-2.512S2363.817,929.558,2365.954,929.558Zm22.78,9.232c-.312-.013-.378.193-.376.439q.04,5.076.086,10.152c1.075.511,2.217.1,3.318.244.732.093.949-.2.893-.928-.15-1.966-.241-3.937-.338-5.907C2392.189,940.165,2391.34,939.208,2388.734,938.79Zm-31.542,0c-2.207.348-3.358,1.266-3.513,3.036-.2,2.329-.276,4.67-.4,7.006-.019.359-.1.82.471.77,1.242-.109,2.518.327,3.732-.225q.044-5.075.086-10.15C2357.569,938.985,2357.5,938.777,2357.192,938.793Zm6.615-16.229a8.5,8.5,0,0,0,2.344,5.16,4.8,4.8,0,0,0,4.2,1.87c2.055-.157,4.132-.043,6.2-.032a2.48,2.48,0,0,0,1.561-.4,8.931,8.931,0,0,0,4.009-6.6,65.887,65.887,0,0,0,.1-9.44l0-.3c-.032-.241-.182-.3-.4-.256a.316.316,0,0,0-.269-.013,1.135,1.135,0,0,0-.857-.131,11.334,11.334,0,0,1-5.2-2.072c-.368-.287-.616-.44-1.022,0-2.815,3.05-6.406,3.756-10.349,3.355-.256-.059-.479,0-.472.295A73.368,73.368,0,0,0,2363.807,922.565Zm9.19,28.973c4.145,0,8.291-.05,12.434.03,1.26.025,1.536-.39,1.525-1.574q-.084-8.7,0-17.408c.013-1.24-.273-1.672-1.6-1.662q-12.434.088-24.868,0c-1.26-.008-1.534.416-1.522,1.591q.081,8.773,0,17.547c-.009,1.11.259,1.522,1.452,1.5C2364.615,951.495,2368.806,951.538,2373,951.538Zm-12.509-40.814a8.211,8.211,0,0,0,.007.965c.062.522-.287,1.344.219,1.5a1.678,1.678,0,0,0,1.859-.555c.4-.541.962-.516,1.615-.42,3.664.537,6.96-.144,9.481-3.118a1.428,1.428,0,0,1,2.27-.221,9.28,9.28,0,0,0,5.42,2.129c1.1.09,2.245.123,2.4,1.688.075.768.934.343,1.375.618a.369.369,0,0,0,.554-.2,4.156,4.156,0,0,0-.9-3.6,8.623,8.623,0,0,1-3.212-5.458c-.265-1.513-.515-1.72-2-1.364a7.9,7.9,0,0,0-1.167.419.931.931,0,0,1-1.232-.279c-1.6-2.253-3.929-2.372-6.4-2.382C2363.731,900.415,2360.047,905.92,2360.488,910.725Zm12.535,45.575c-10.041,0-20.082.019-30.123-.027-1.161-.005-1.436.414-1.342,1.445.106,1.173.982.762,1.567.763q29.847.029,59.693.016c.23,0,.461-.013.691,0,.568.032.8-.21.864-.8.107-1.06-.233-1.432-1.365-1.427C2393.013,956.318,2383.017,956.3,2373.023,956.3Zm9.9-53.688a7.269,7.269,0,1,0,7.385-7.165A7.245,7.245,0,0,0,2382.919,902.612Zm-9.976,50.342c-4.738,0-9.476-.006-14.214.013-.362,0-.926-.277-1.053.3a1.3,1.3,0,0,0,.575,1.188,2.385,2.385,0,0,0,1.687.451q13.042-.008,26.083,0a2.3,2.3,0,0,0,1.677-.477,1.226,1.226,0,0,0,.535-1.2c-.161-.542-.711-.266-1.076-.268C2382.42,952.948,2377.682,952.955,2372.944,952.954Zm-23.681,1.953c1.007,0,2.015.012,3.021-.008.28-.005.613.139.768-.332.354-1.077-.271-2.534-1.346-2.621a24.549,24.549,0,0,0-4.793.015c-1.252.146-1.406,1.272-1.32,2.351.092,1.155.971.49,1.476.567A14.605,14.605,0,0,0,2349.262,954.907Zm12.995-36.852c0-.917-.032-1.835.01-2.75.034-.743-.267-.845-.906-.661a3.476,3.476,0,0,0-.255,6.584c.907.372,1.251.168,1.166-.837C2362.205,919.618,2362.258,918.834,2362.257,918.055Zm21.41-.175c0,.917.037,1.835-.011,2.749-.045.861.339.895,1,.654a3.467,3.467,0,0,0,.576-6.353c-1.28-.688-1.555-.532-1.562.888C2383.664,916.506,2383.667,917.193,2383.667,917.88Zm5.641,37.021c1.053,0,2.015-.005,2.976,0,.4,0,.734,0,.691-.564-.069-.914-.1-1.831-.141-2.747-.014-.3-.1-.561-.45-.564-1.34-.01-2.679,0-4.3,0C2389.922,952.592,2389.968,952.756,2389.309,954.9Zm-35.971-3.758a3.508,3.508,0,0,1,1.1,3c-.065.6.175.827.772.772.446-.04.9-.008,1.452-.008-.619-1.51-.867-2.861.917-3.76Z" transform="translate(-2340.141 -894.047)" fill="#090a0a"/>
        <path id="Trazado_602646" data-name="Trazado 602646" d="M2422.22,1047.942c-4.19,0-8.382-.044-12.572.028-1.193.02-1.46-.391-1.451-1.5q.069-8.773,0-17.547c-.011-1.175.263-1.6,1.523-1.591q12.434.08,24.868,0c1.323-.01,1.609.422,1.6,1.662q-.092,8.7,0,17.408c.011,1.183-.265,1.6-1.524,1.574C2430.511,1047.891,2426.365,1047.942,2422.22,1047.942Zm-.088-9.6v0c.639,0,1.278,0,1.916,0a.675.675,0,0,0,.757-.629.65.65,0,0,0-.653-.73c-1.322-.029-2.645-.029-3.966.011a.671.671,0,0,0,.03,1.339C2420.856,1038.353,2421.494,1038.339,2422.133,1038.339Z" transform="translate(-2389.365 -990.451)" fill="#e8eff6"/>
        <path id="Trazado_602647" data-name="Trazado 602647" d="M2425.981,955.62c3.943.4,7.535-.3,10.35-3.355.406-.44.654-.287,1.022,0a11.333,11.333,0,0,0,5.2,2.072c.212.525.5.521.857.131a.317.317,0,0,1,.269.013l.4.256q0,.149,0,.3c-.546.346-.365.9-.368,1.38-.016,2.253-.012,4.506,0,6.759,0,.446-.127.932.272,1.3a8.931,8.931,0,0,1-4.009,6.6,2.48,2.48,0,0,1-1.561.4c-2.068-.012-4.145-.126-6.2.032a4.8,4.8,0,0,1-4.2-1.87,8.494,8.494,0,0,1-2.344-5.16c.429-.412.267-.946.271-1.432C2425.969,960.569,2425.971,958.094,2425.981,955.62Zm9.156,11.925a4.118,4.118,0,0,0,2.989-1.168c.329-.312.52-.691.2-1.086s-.7-.306-1.074.007a3.007,3.007,0,0,1-4.225.052c-.353-.285-.7-.5-1.077-.113-.428.444-.179.846.183,1.18A4.143,4.143,0,0,0,2435.137,967.546Zm-3.157-7.066c-.076-.7-.393-1.228-1.155-1.294a1.253,1.253,0,1,0-.262,2.492C2431.381,961.758,2431.817,961.261,2431.98,960.479Zm7.252-1.321a1.207,1.207,0,0,0-1.237,1.287,1.168,1.168,0,0,0,1.21,1.236,1.18,1.18,0,0,0,1.307-1.273C2440.512,959.689,2440.061,959.239,2439.232,959.158Z" transform="translate(-2402.008 -935.957)" fill="#f5cdb2"/>
        <path id="Trazado_602648" data-name="Trazado 602648" d="M2413.54,927.446c-.441-4.8,3.242-10.309,10.282-10.281,2.474.01,4.8.129,6.4,2.381a.931.931,0,0,0,1.232.279,7.879,7.879,0,0,1,1.166-.419c1.488-.355,1.738-.148,2,1.364a8.627,8.627,0,0,0,3.213,5.458,4.155,4.155,0,0,1,.9,3.6.369.369,0,0,1-.553.2c-.441-.275-1.3.15-1.375-.618-.153-1.565-1.3-1.6-2.4-1.688a9.28,9.28,0,0,1-5.419-2.13,1.428,1.428,0,0,0-2.271.221c-2.521,2.974-5.817,3.655-9.481,3.118-.652-.1-1.21-.12-1.614.42a1.679,1.679,0,0,1-1.859.555c-.506-.154-.157-.976-.219-1.5A8.107,8.107,0,0,1,2413.54,927.446Z" transform="translate(-2393.193 -910.768)" fill="#734d33"/>
        <path id="Trazado_602649" data-name="Trazado 602649" d="M2376.682,1118.971c9.995,0,19.99.018,29.985-.025,1.132,0,1.472.368,1.365,1.427-.059.585-.3.827-.864.8-.229-.013-.46,0-.691,0q-29.847,0-59.693-.016c-.585,0-1.461.411-1.567-.762-.094-1.031.182-1.45,1.343-1.445C2356.6,1118.991,2366.641,1118.971,2376.682,1118.971Z" transform="translate(-2343.8 -1056.719)" fill="#508dd7"/>
        <path id="Trazado_602650" data-name="Trazado 602650" d="M2494.749,906.271a7.268,7.268,0,1,1,7.207,7.346A7.249,7.249,0,0,1,2494.749,906.271Zm12.152-1.189a2.072,2.072,0,0,0-1.111-1.812,1.972,1.972,0,0,0-2.22.074,7.824,7.824,0,0,0-1.308,1.223c-.544.612-.943.956-1.73.169a2.006,2.006,0,0,0-2.964.092,2.11,2.11,0,0,0,.022,2.989c.707.787,1.481,1.514,2.24,2.252a2.112,2.112,0,0,0,1.489.632C2502.624,910.713,2506.857,906.54,2506.9,905.082Z" transform="translate(-2451.97 -897.705)" fill="#aedd6a"/>
        <path id="Trazado_602651" data-name="Trazado 602651" d="M2418.735,1106.8c4.738,0,9.477-.007,14.215.012.365,0,.916-.274,1.076.268a1.225,1.225,0,0,1-.535,1.2,2.3,2.3,0,0,1-1.677.477q-13.042-.008-26.083,0a2.387,2.387,0,0,1-1.687-.451,1.3,1.3,0,0,1-.574-1.188c.127-.578.692-.3,1.052-.3C2409.259,1106.8,2414,1106.8,2418.735,1106.8Z" transform="translate(-2385.932 -1047.897)" fill="#d6e2ed"/>
        <path id="Trazado_602652" data-name="Trazado 602652" d="M2391.788,1066.356c-1.214.552-2.49.116-3.733.225-.568.05-.49-.411-.47-.77.124-2.336.2-4.677.4-7.006.155-1.771,1.306-2.689,3.513-3.036,0,3.057,0,6.113.017,9.17C2391.518,1065.418,2391.337,1065.954,2391.788,1066.356Z" transform="translate(-2374.448 -1011.023)" fill="#6ed2f4"/>
        <path id="Trazado_602653" data-name="Trazado 602653" d="M2515.005,1055.757c2.607.418,3.456,1.375,3.583,4,.1,1.97.188,3.941.338,5.907.056.73-.161,1.021-.893.928-1.1-.14-2.244.267-3.318-.244.452-.4.27-.938.273-1.418C2515.007,1061.872,2515,1058.815,2515.005,1055.757Z" transform="translate(-2466.413 -1011.014)" fill="#6ed2f4"/>
        <path id="Trazado_602654" data-name="Trazado 602654" d="M2363.464,1105.98a14.568,14.568,0,0,1-2.193-.028c-.5-.077-1.384.588-1.477-.567-.086-1.078.067-2.2,1.32-2.351a24.572,24.572,0,0,1,4.793-.015c1.075.087,1.7,1.544,1.346,2.621-.155.471-.489.326-.768.331C2365.479,1105.992,2364.471,1105.98,2363.464,1105.98Z" transform="translate(-2354.343 -1045.12)" fill="#f3f5f6"/>
        <path id="Trazado_602655" data-name="Trazado 602655" d="M2411.2,971.693c0,.779-.052,1.563.014,2.336.086,1.005-.258,1.209-1.166.838a3.476,3.476,0,0,1,.255-6.584c.639-.185.941-.082.906.661C2411.172,969.858,2411.2,970.776,2411.2,971.693Z" transform="translate(-2389.088 -947.685)" fill="#f5cdb2"/>
        <path id="Trazado_602656" data-name="Trazado 602656" d="M2497.416,971.438c0-.687,0-1.375,0-2.062.006-1.42.282-1.576,1.562-.888a3.467,3.467,0,0,1-.576,6.353c-.658.241-1.042.207-1-.654C2497.454,973.273,2497.417,972.355,2497.416,971.438Z" transform="translate(-2453.89 -947.605)" fill="#f5cdb2"/>
        <path id="Trazado_602657" data-name="Trazado 602657" d="M2514.651,1103.849c.66-2.146.614-2.31-1.22-3.876,1.619,0,2.958-.006,4.3,0,.352,0,.436.262.45.564.042.916.072,1.833.141,2.747.043.563-.295.567-.691.564C2516.666,1103.844,2515.7,1103.849,2514.651,1103.849Z" transform="translate(-2465.483 -1042.995)" fill="#f5cdb2"/>
        <path id="Trazado_602658" data-name="Trazado 602658" d="M2387.837,1100.406h4.241c-1.784.9-1.536,2.249-.917,3.759-.553,0-1.006-.032-1.451.008-.6.054-.838-.169-.773-.772A3.507,3.507,0,0,0,2387.837,1100.406Z" transform="translate(-2374.64 -1043.309)" fill="#f5cdb2"/>
        <path id="Trazado_602659" data-name="Trazado 602659" d="M2491.079,972.433c-.4-.368-.27-.854-.272-1.3-.01-2.253-.013-4.506,0-6.76,0-.48-.177-1.034.368-1.38A65.782,65.782,0,0,1,2491.079,972.433Z" transform="translate(-2449.103 -943.917)" fill="#d0b299"/>
        <path id="Trazado_602660" data-name="Trazado 602660" d="M2425.43,965.059c-.011,2.474-.013,4.948-.037,7.422,0,.487.157,1.02-.271,1.432a73.314,73.314,0,0,1-.165-8.56C2424.951,965.059,2425.174,965,2425.43,965.059Z" transform="translate(-2401.456 -945.396)" fill="#d0b299"/>
        <path id="Trazado_602661" data-name="Trazado 602661" d="M2402.011,1066.354c-.452-.4-.27-.938-.274-1.417-.018-3.056-.013-6.113-.017-9.17.313-.016.378.191.376.437Q2402.057,1061.279,2402.011,1066.354Z" transform="translate(-2384.67 -1011.02)" fill="#77e4fc"/>
        <path id="Trazado_602662" data-name="Trazado 602662" d="M2514.78,1055.755c0,3.058,0,6.115-.017,9.173,0,.48.178,1.016-.273,1.418q-.044-5.076-.086-10.151C2514.4,1055.948,2514.469,1055.742,2514.78,1055.755Z" transform="translate(-2466.188 -1011.012)" fill="#77e4fc"/>
        <path id="Trazado_602663" data-name="Trazado 602663" d="M2487.545,960.522c-.352.39-.645.394-.857-.131A1.135,1.135,0,0,1,2487.545,960.522Z" transform="translate(-2446.14 -942.012)" fill="#d0b299"/>
        <path id="Trazado_602664" data-name="Trazado 602664" d="M2491.156,961.21l-.4-.256C2490.974,960.908,2491.123,960.969,2491.156,961.21Z" transform="translate(-2449.083 -942.431)" fill="#d0b299"/>
        <path id="Trazado_602665" data-name="Trazado 602665" d="M2451.858,1063.526c-.639,0-1.278.015-1.916-.006a.671.671,0,0,1-.03-1.339c1.321-.04,2.644-.04,3.966-.011a.65.65,0,0,1,.653.73.675.675,0,0,1-.757.629c-.638,0-1.277,0-1.915,0Z" transform="translate(-2419.09 -1015.637)" fill="#0c0e0a"/>
        <path id="Trazado_602666" data-name="Trazado 602666" d="M2450.956,1001.628a4.15,4.15,0,0,1-3-1.129c-.361-.335-.611-.736-.183-1.18.377-.391.724-.172,1.077.113a3.006,3.006,0,0,0,4.225-.052c.371-.313.75-.408,1.074-.007s.129.774-.2,1.086A4.123,4.123,0,0,1,2450.956,1001.628Z" transform="translate(-2417.826 -970.038)" fill="#090a0a"/>
        <path id="Trazado_602667" data-name="Trazado 602667" d="M2441.82,979.272c-.163.782-.6,1.279-1.417,1.2a1.253,1.253,0,1,1,.262-2.491C2441.427,978.044,2441.744,978.57,2441.82,979.272Z" transform="translate(-2411.847 -954.75)" fill="#0c0e0a"/>
        <path id="Trazado_602668" data-name="Trazado 602668" d="M2471.443,977.9c.829.081,1.281.531,1.281,1.25a1.18,1.18,0,0,1-1.307,1.273,1.167,1.167,0,0,1-1.21-1.236A1.206,1.206,0,0,1,2471.443,977.9Z" transform="translate(-2434.219 -954.699)" fill="#0c0e0a"/>
        <path id="Trazado_602669" data-name="Trazado 602669" d="M2512.678,915.172c-.043,1.458-4.277,5.631-5.581,5.619a2.114,2.114,0,0,1-1.489-.632c-.758-.739-1.533-1.465-2.24-2.252a2.111,2.111,0,0,1-.022-2.989,2.006,2.006,0,0,1,2.964-.092c.787.787,1.186.443,1.73-.169a7.824,7.824,0,0,1,1.308-1.223,1.972,1.972,0,0,1,2.22-.074A2.071,2.071,0,0,1,2512.678,915.172Zm-5.588,4.217a1.366,1.366,0,0,0,.916-.548c.716-.711,1.483-1.381,2.123-2.155.457-.553,1.757-1.015.877-1.922-.9-.925-1.351.395-1.925.827-.617.465-1.062,1.26-1.735,1.523-.9.352-1.192-.787-1.816-1.18a1.354,1.354,0,0,0-.471-.268.734.734,0,0,0-.905.768C2504.129,916.891,2506.625,919.367,2507.09,919.389Z" transform="translate(-2457.749 -907.795)" fill="#0c0e0a"/>
        <path id="Trazado_602670" data-name="Trazado 602670" d="M2510.79,923.016c-.464-.021-2.961-2.5-2.937-2.953a.734.734,0,0,1,.9-.768,1.356,1.356,0,0,1,.472.268c.624.393.919,1.531,1.816,1.18.673-.263,1.118-1.059,1.735-1.523.574-.433,1.029-1.752,1.925-.827.88.906-.42,1.368-.877,1.922-.64.774-1.407,1.444-2.122,2.155A1.361,1.361,0,0,1,2510.79,923.016Z" transform="translate(-2461.449 -911.424)" fill="#e0e7ec"/>
      </g>
    </g>
    <path id="Trazado_603586" data-name="Trazado 603586" d="M12.432-4.736a5.031,5.031,0,0,1-1.694,3.613A5.951,5.951,0,0,1,6.709.2a5.351,5.351,0,0,1-4.3-1.841A7.548,7.548,0,0,1,.84-6.7v-.869a8.523,8.523,0,0,1,.723-3.613,5.416,5.416,0,0,1,2.065-2.4,5.786,5.786,0,0,1,3.12-.835A5.8,5.8,0,0,1,10.713-13.1a5.407,5.407,0,0,1,1.738,3.7H9.521a2.97,2.97,0,0,0-.767-2,2.839,2.839,0,0,0-2.007-.62,2.489,2.489,0,0,0-2.192,1.05,5.883,5.883,0,0,0-.747,3.257v1.074a6.3,6.3,0,0,0,.7,3.369A2.443,2.443,0,0,0,6.709-2.2a2.892,2.892,0,0,0,2.026-.62A2.8,2.8,0,0,0,9.5-4.736ZM20.293,0a3.134,3.134,0,0,1-.283-.947A3.415,3.415,0,0,1,17.344.2a3.752,3.752,0,0,1-2.573-.9A2.89,2.89,0,0,1,13.75-2.969,2.986,2.986,0,0,1,15-5.547a6.144,6.144,0,0,1,3.6-.908h1.3v-.605a1.741,1.741,0,0,0-.376-1.172,1.479,1.479,0,0,0-1.187-.439,1.682,1.682,0,0,0-1.118.342,1.161,1.161,0,0,0-.405.938H13.984a2.835,2.835,0,0,1,.566-1.7,3.744,3.744,0,0,1,1.6-1.226,5.837,5.837,0,0,1,2.324-.444,4.611,4.611,0,0,1,3.1.981,3.433,3.433,0,0,1,1.147,2.759v4.58a5.052,5.052,0,0,0,.42,2.275V0ZM17.959-1.963a2.431,2.431,0,0,0,1.152-.278,1.828,1.828,0,0,0,.781-.747V-4.8H18.838q-2.119,0-2.256,1.465l-.01.166a1.13,1.13,0,0,0,.371.869A1.441,1.441,0,0,0,17.959-1.963ZM27.871,0H25.039V-15h2.832Zm5.3,0H30.342V-10.566h2.832Zm-3-13.3a1.39,1.39,0,0,1,.425-1.045,1.6,1.6,0,0,1,1.157-.41,1.6,1.6,0,0,1,1.152.41,1.382,1.382,0,0,1,.43,1.045,1.386,1.386,0,0,1-.435,1.055,1.6,1.6,0,0,1-1.147.41,1.6,1.6,0,0,1-1.147-.41A1.386,1.386,0,0,1,30.176-13.3Zm4.883,7.939A6.368,6.368,0,0,1,36.167-9.3,3.6,3.6,0,0,1,39.2-10.762a3.236,3.236,0,0,1,2.549,1.152V-15H44.58V0H42.031l-.137-1.123A3.321,3.321,0,0,1,39.18.2a3.587,3.587,0,0,1-2.993-1.47A6.573,6.573,0,0,1,35.059-5.361Zm2.822.21A4.171,4.171,0,0,0,38.4-2.872a1.686,1.686,0,0,0,1.5.792,1.888,1.888,0,0,0,1.846-1.105V-7.362a1.861,1.861,0,0,0-1.826-1.105Q37.881-8.467,37.881-5.151ZM52.891,0a3.134,3.134,0,0,1-.283-.947A3.415,3.415,0,0,1,49.941.2a3.752,3.752,0,0,1-2.573-.9,2.89,2.89,0,0,1-1.021-2.266,2.986,2.986,0,0,1,1.245-2.578,6.144,6.144,0,0,1,3.6-.908h1.3v-.605a1.741,1.741,0,0,0-.376-1.172,1.479,1.479,0,0,0-1.187-.439,1.682,1.682,0,0,0-1.118.342,1.161,1.161,0,0,0-.405.938H46.582a2.835,2.835,0,0,1,.566-1.7,3.744,3.744,0,0,1,1.6-1.226,5.837,5.837,0,0,1,2.324-.444,4.611,4.611,0,0,1,3.1.981,3.433,3.433,0,0,1,1.147,2.759v4.58a5.052,5.052,0,0,0,.42,2.275V0ZM50.557-1.963a2.431,2.431,0,0,0,1.152-.278,1.828,1.828,0,0,0,.781-.747V-4.8H51.436q-2.119,0-2.256,1.465l-.01.166a1.13,1.13,0,0,0,.371.869A1.441,1.441,0,0,0,50.557-1.963Zm6.494-3.4A6.368,6.368,0,0,1,58.159-9.3a3.6,3.6,0,0,1,3.032-1.465A3.236,3.236,0,0,1,63.74-9.609V-15h2.832V0H64.023l-.137-1.123A3.321,3.321,0,0,1,61.172.2a3.587,3.587,0,0,1-2.993-1.47A6.573,6.573,0,0,1,57.051-5.361Zm2.822.21a4.171,4.171,0,0,0,.518,2.279,1.686,1.686,0,0,0,1.5.792A1.888,1.888,0,0,0,63.74-3.185V-7.362a1.861,1.861,0,0,0-1.826-1.105Q59.873-8.467,59.873-5.151Z" transform="translate(1188.776 9870.746)" fill="#12263f"/>
    <path id="Trazado_603587" data-name="Trazado 603587" d="M-43.027-3.721h-5.957L-50.322,0h-1.934l5.43-14.219h1.641L-39.746,0H-41.67Zm-5.391-1.533h4.834l-2.422-6.65Zm9.863-.117A6.19,6.19,0,0,1-37.4-9.282a3.644,3.644,0,0,1,3.018-1.479,3.665,3.665,0,0,1,2.939,1.27V-15h1.807V0H-31.3l-.088-1.133A3.679,3.679,0,0,1-34.4.2a3.609,3.609,0,0,1-2.993-1.5,6.26,6.26,0,0,1-1.157-3.926Zm1.807.205a4.687,4.687,0,0,0,.742,2.813,2.4,2.4,0,0,0,2.051,1.016,2.636,2.636,0,0,0,2.51-1.543V-7.734a2.656,2.656,0,0,0-2.49-1.494A2.411,2.411,0,0,0-36.006-8.2,5.16,5.16,0,0,0-36.748-5.166ZM-22.451.2a4.617,4.617,0,0,1-3.5-1.411A5.237,5.237,0,0,1-27.295-4.99v-.332a6.341,6.341,0,0,1,.6-2.808,4.685,4.685,0,0,1,1.68-1.934,4.223,4.223,0,0,1,2.339-.7,3.957,3.957,0,0,1,3.2,1.357A5.877,5.877,0,0,1-18.33-5.518v.752h-7.158a3.756,3.756,0,0,0,.913,2.524,2.87,2.87,0,0,0,2.222.962,3.147,3.147,0,0,0,1.621-.391A4.073,4.073,0,0,0-19.57-2.705l1.1.859A4.437,4.437,0,0,1-22.451.2Zm-.225-9.473a2.41,2.41,0,0,0-1.836.8A3.868,3.868,0,0,0-25.43-6.25h5.293v-.137a3.441,3.441,0,0,0-.742-2.134A2.269,2.269,0,0,0-22.676-9.277Zm10.674,8a2.6,2.6,0,0,0,1.689-.586,2.061,2.061,0,0,0,.8-1.465H-7.8A3.276,3.276,0,0,1-8.428-1.6,4.116,4.116,0,0,1-9.966-.293,4.438,4.438,0,0,1-12,.2a4.353,4.353,0,0,1-3.433-1.44,5.737,5.737,0,0,1-1.274-3.94v-.3a6.361,6.361,0,0,1,.566-2.744A4.314,4.314,0,0,1-14.517-10.1a4.619,4.619,0,0,1,2.5-.664A4.238,4.238,0,0,1-9.058-9.7,3.8,3.8,0,0,1-7.8-6.934H-9.512a2.49,2.49,0,0,0-.776-1.685,2.415,2.415,0,0,0-1.724-.659,2.529,2.529,0,0,0-2.134.991A4.655,4.655,0,0,0-14.9-5.42v.342a4.562,4.562,0,0,0,.752,2.813A2.541,2.541,0,0,0-12-1.279ZM.752-1.045A3.837,3.837,0,0,1-2.344.2,3.285,3.285,0,0,1-4.917-.786a4.248,4.248,0,0,1-.894-2.905v-6.875H-4V-3.74q0,2.4,1.953,2.4A2.7,2.7,0,0,0,.7-2.881v-7.686H2.51V0H.791ZM11.777,0a3.8,3.8,0,0,1-.254-1.113A4.031,4.031,0,0,1,8.516.2,3.73,3.73,0,0,1,5.952-.688a2.859,2.859,0,0,1-1-2.241A2.987,2.987,0,0,1,6.206-5.493a5.916,5.916,0,0,1,3.53-.913h1.758v-.83a2.029,2.029,0,0,0-.566-1.509,2.276,2.276,0,0,0-1.67-.562,2.634,2.634,0,0,0-1.621.488,1.439,1.439,0,0,0-.654,1.182H5.166a2.493,2.493,0,0,1,.562-1.528,3.832,3.832,0,0,1,1.523-1.167,5.125,5.125,0,0,1,2.114-.43,4.177,4.177,0,0,1,2.861.913A3.294,3.294,0,0,1,13.3-7.334v4.863a5.946,5.946,0,0,0,.371,2.314V0Zm-3-1.377a3.175,3.175,0,0,0,1.611-.439,2.658,2.658,0,0,0,1.1-1.143V-5.127H10.078q-3.32,0-3.32,1.943a1.645,1.645,0,0,0,.566,1.328A2.177,2.177,0,0,0,8.779-1.377Zm11.592.1a2.6,2.6,0,0,0,1.689-.586,2.061,2.061,0,0,0,.8-1.465H24.57A3.276,3.276,0,0,1,23.945-1.6,4.116,4.116,0,0,1,22.407-.293,4.438,4.438,0,0,1,20.371.2a4.353,4.353,0,0,1-3.433-1.44,5.737,5.737,0,0,1-1.274-3.94v-.3a6.361,6.361,0,0,1,.566-2.744A4.314,4.314,0,0,1,17.856-10.1a4.619,4.619,0,0,1,2.5-.664A4.238,4.238,0,0,1,23.315-9.7,3.8,3.8,0,0,1,24.57-6.934H22.861a2.49,2.49,0,0,0-.776-1.685,2.415,2.415,0,0,0-1.724-.659,2.529,2.529,0,0,0-2.134.991,4.655,4.655,0,0,0-.757,2.866v.342a4.562,4.562,0,0,0,.752,2.813A2.541,2.541,0,0,0,20.371-1.279ZM28.564,0H26.758V-10.566h1.807ZM26.611-13.369a1.078,1.078,0,0,1,.269-.742,1.008,1.008,0,0,1,.8-.3,1.024,1.024,0,0,1,.8.3,1.067,1.067,0,0,1,.273.742,1.032,1.032,0,0,1-.273.732,1.043,1.043,0,0,1-.8.293,1.026,1.026,0,0,1-.8-.293A1.043,1.043,0,0,1,26.611-13.369Zm4.365,7.988a6.241,6.241,0,0,1,.61-2.793,4.553,4.553,0,0,1,1.7-1.914,4.626,4.626,0,0,1,2.485-.674,4.456,4.456,0,0,1,3.491,1.494A5.748,5.748,0,0,1,40.6-5.293v.127A6.3,6.3,0,0,1,40-2.4,4.486,4.486,0,0,1,38.315-.488,4.679,4.679,0,0,1,35.791.2,4.445,4.445,0,0,1,32.31-1.3a5.719,5.719,0,0,1-1.333-3.955Zm1.816.215a4.52,4.52,0,0,0,.815,2.822,2.61,2.61,0,0,0,2.183,1.064,2.594,2.594,0,0,0,2.188-1.079,4.943,4.943,0,0,0,.811-3.022A4.513,4.513,0,0,0,37.964-8.2a2.623,2.623,0,0,0-2.192-1.079,2.594,2.594,0,0,0-2.158,1.064A4.906,4.906,0,0,0,32.793-5.166ZM36.592-15h2.188l-2.617,2.871-1.455,0Zm7.979,4.434.059,1.328a3.851,3.851,0,0,1,3.164-1.523q3.35,0,3.379,3.779V0H49.365V-6.992a2.432,2.432,0,0,0-.522-1.689,2.094,2.094,0,0,0-1.6-.547A2.607,2.607,0,0,0,45.7-8.76a3.183,3.183,0,0,0-1.035,1.23V0H42.861V-10.566ZM-38.994,23V13.83h-1.67v-1.4h1.67V11.35a3.6,3.6,0,0,1,.908-2.627,3.431,3.431,0,0,1,2.568-.928,4.77,4.77,0,0,1,1.24.165l-.1,1.456a5.189,5.189,0,0,0-.977-.088,1.763,1.763,0,0,0-1.357.514,2.086,2.086,0,0,0-.479,1.474v1.117h2.256v1.4h-2.256V23Zm12.578-1.045a3.837,3.837,0,0,1-3.1,1.24,3.285,3.285,0,0,1-2.573-.981,4.248,4.248,0,0,1-.894-2.905V12.434h1.807V19.26q0,2.4,1.953,2.4a2.7,2.7,0,0,0,2.754-1.543V12.434h1.807V23h-1.719Zm6.211-9.521.059,1.328a3.85,3.85,0,0,1,3.164-1.523q3.35,0,3.379,3.779V23H-15.41V16.008a2.432,2.432,0,0,0-.522-1.689,2.094,2.094,0,0,0-1.6-.547,2.607,2.607,0,0,0-1.543.469,3.183,3.183,0,0,0-1.035,1.23V23h-1.807V12.434Zm13.564,9.287a2.6,2.6,0,0,0,1.689-.586,2.061,2.061,0,0,0,.8-1.465h1.709A3.276,3.276,0,0,1-3.066,21.4,4.116,4.116,0,0,1-4.6,22.707a4.438,4.438,0,0,1-2.036.488,4.353,4.353,0,0,1-3.433-1.44,5.737,5.737,0,0,1-1.274-3.94v-.3a6.361,6.361,0,0,1,.566-2.744A4.314,4.314,0,0,1-9.155,12.9a4.619,4.619,0,0,1,2.5-.664A4.238,4.238,0,0,1-3.7,13.3a3.8,3.8,0,0,1,1.255,2.764H-4.15a2.49,2.49,0,0,0-.776-1.685,2.415,2.415,0,0,0-1.724-.659,2.529,2.529,0,0,0-2.134.991,4.655,4.655,0,0,0-.757,2.866v.342a4.562,4.562,0,0,0,.752,2.813A2.541,2.541,0,0,0-6.641,21.721ZM1.553,23H-.254V12.434H1.553ZM-.4,9.631a1.078,1.078,0,0,1,.269-.742,1.008,1.008,0,0,1,.8-.3,1.024,1.024,0,0,1,.8.3,1.067,1.067,0,0,1,.273.742,1.032,1.032,0,0,1-.273.732,1.043,1.043,0,0,1-.8.293,1.026,1.026,0,0,1-.8-.293A1.043,1.043,0,0,1-.4,9.631Zm4.365,7.988a6.241,6.241,0,0,1,.61-2.793,4.553,4.553,0,0,1,1.7-1.914,4.626,4.626,0,0,1,2.485-.674,4.456,4.456,0,0,1,3.491,1.494,5.748,5.748,0,0,1,1.333,3.975v.127a6.3,6.3,0,0,1-.591,2.769A4.486,4.486,0,0,1,11.3,22.512a4.679,4.679,0,0,1-2.524.684A4.445,4.445,0,0,1,5.3,21.7a5.719,5.719,0,0,1-1.333-3.955Zm1.816.215A4.52,4.52,0,0,0,6.6,20.656a2.61,2.61,0,0,0,2.183,1.064,2.594,2.594,0,0,0,2.188-1.079,4.943,4.943,0,0,0,.811-3.022,4.513,4.513,0,0,0-.825-2.817A2.623,2.623,0,0,0,8.76,13.723,2.594,2.594,0,0,0,6.6,14.787,4.906,4.906,0,0,0,5.781,17.834Zm11.777-5.4.059,1.328a3.85,3.85,0,0,1,3.164-1.523q3.35,0,3.379,3.779V23H22.354V16.008a2.432,2.432,0,0,0-.522-1.689,2.094,2.094,0,0,0-1.6-.547,2.607,2.607,0,0,0-1.543.469,3.183,3.183,0,0,0-1.035,1.23V23H15.85V12.434ZM33.408,23a3.8,3.8,0,0,1-.254-1.113A4.031,4.031,0,0,1,30.146,23.2a3.73,3.73,0,0,1-2.563-.884,2.859,2.859,0,0,1-1-2.241,2.987,2.987,0,0,1,1.255-2.563,5.916,5.916,0,0,1,3.53-.913h1.758v-.83a2.029,2.029,0,0,0-.566-1.509,2.276,2.276,0,0,0-1.67-.562,2.634,2.634,0,0,0-1.621.488,1.439,1.439,0,0,0-.654,1.182H26.8a2.493,2.493,0,0,1,.562-1.528,3.832,3.832,0,0,1,1.523-1.167A5.125,5.125,0,0,1,31,12.238a4.177,4.177,0,0,1,2.861.913,3.294,3.294,0,0,1,1.074,2.515v4.863a5.946,5.946,0,0,0,.371,2.314V23Zm-3-1.377a3.175,3.175,0,0,0,1.611-.439,2.658,2.658,0,0,0,1.1-1.143V17.873H31.709q-3.32,0-3.32,1.943a1.645,1.645,0,0,0,.566,1.328A2.177,2.177,0,0,0,30.41,21.623ZM39.727,23H37.92V8h1.807Z" transform="translate(1308.287 9682.293)" fill="#12263f"/>
    <path id="Trazado_603588" data-name="Trazado 603588" d="M-46.523-6.572h-6.162v5.039h7.158V0h-9.033V-14.219h8.936v1.533h-7.061v4.58h6.162ZM-42.871,0V-9.17h-1.67v-1.4h1.67v-.9a3.671,3.671,0,0,1,1.011-2.754A3.919,3.919,0,0,1-39-15.205a8.6,8.6,0,0,1,2.764.6l-.3,1.523a6.259,6.259,0,0,0-2.324-.488,2.274,2.274,0,0,0-1.675.522,2.154,2.154,0,0,0-.513,1.567v.918H-38.9v1.4h-2.158V0Zm7.529,0h-1.816V-10.566h1.816Zm7.178-1.279a2.6,2.6,0,0,0,1.689-.586,2.061,2.061,0,0,0,.8-1.465h1.709A3.276,3.276,0,0,1-24.59-1.6,4.116,4.116,0,0,1-26.128-.293,4.438,4.438,0,0,1-28.164.2,4.353,4.353,0,0,1-31.6-1.245a5.737,5.737,0,0,1-1.274-3.94v-.3A6.361,6.361,0,0,1-32.3-8.232,4.314,4.314,0,0,1-30.679-10.1a4.619,4.619,0,0,1,2.5-.664A4.238,4.238,0,0,1-25.22-9.7a3.8,3.8,0,0,1,1.255,2.764h-1.709a2.49,2.49,0,0,0-.776-1.685,2.415,2.415,0,0,0-1.724-.659,2.529,2.529,0,0,0-2.134.991,4.655,4.655,0,0,0-.757,2.866v.342a4.562,4.562,0,0,0,.752,2.813A2.541,2.541,0,0,0-28.164-1.279ZM-19.971,0h-1.807V-10.566h1.807Zm-1.953-13.369a1.078,1.078,0,0,1,.269-.742,1.008,1.008,0,0,1,.8-.3,1.024,1.024,0,0,1,.8.3,1.067,1.067,0,0,1,.273.742,1.032,1.032,0,0,1-.273.732,1.043,1.043,0,0,1-.8.293,1.026,1.026,0,0,1-.8-.293A1.043,1.043,0,0,1-21.924-13.369ZM-12.7.2a4.617,4.617,0,0,1-3.5-1.411A5.237,5.237,0,0,1-17.539-4.99v-.332a6.341,6.341,0,0,1,.6-2.808,4.685,4.685,0,0,1,1.68-1.934,4.223,4.223,0,0,1,2.339-.7A3.957,3.957,0,0,1-9.717-9.4,5.877,5.877,0,0,1-8.574-5.518v.752h-7.158a3.756,3.756,0,0,0,.913,2.524,2.87,2.87,0,0,0,2.222.962,3.147,3.147,0,0,0,1.621-.391A4.073,4.073,0,0,0-9.814-2.705l1.1.859A4.437,4.437,0,0,1-12.7.2Zm-.225-9.473a2.41,2.41,0,0,0-1.836.8,3.868,3.868,0,0,0-.918,2.231h5.293v-.137a3.441,3.441,0,0,0-.742-2.134A2.269,2.269,0,0,0-12.92-9.277Zm8.145-1.289.059,1.328a3.85,3.85,0,0,1,3.164-1.523q3.35,0,3.379,3.779V0H.02V-6.992A2.432,2.432,0,0,0-.5-8.682a2.094,2.094,0,0,0-1.6-.547,2.607,2.607,0,0,0-1.543.469,3.183,3.183,0,0,0-1.035,1.23V0H-6.484V-10.566ZM8.789-1.279a2.6,2.6,0,0,0,1.689-.586,2.061,2.061,0,0,0,.8-1.465h1.709A3.276,3.276,0,0,1,12.363-1.6,4.116,4.116,0,0,1,10.825-.293,4.438,4.438,0,0,1,8.789.2a4.353,4.353,0,0,1-3.433-1.44,5.737,5.737,0,0,1-1.274-3.94v-.3a6.361,6.361,0,0,1,.566-2.744A4.314,4.314,0,0,1,6.274-10.1a4.619,4.619,0,0,1,2.5-.664A4.238,4.238,0,0,1,11.733-9.7a3.8,3.8,0,0,1,1.255,2.764H11.279A2.49,2.49,0,0,0,10.5-8.618a2.415,2.415,0,0,0-1.724-.659,2.529,2.529,0,0,0-2.134.991A4.655,4.655,0,0,0,5.889-5.42v.342a4.562,4.562,0,0,0,.752,2.813A2.541,2.541,0,0,0,8.789-1.279ZM16.982,0H15.176V-10.566h1.807ZM15.029-13.369a1.078,1.078,0,0,1,.269-.742,1.008,1.008,0,0,1,.8-.3,1.024,1.024,0,0,1,.8.3,1.067,1.067,0,0,1,.273.742,1.032,1.032,0,0,1-.273.732,1.043,1.043,0,0,1-.8.293,1.026,1.026,0,0,1-.8-.293A1.043,1.043,0,0,1,15.029-13.369ZM26.4,0a3.8,3.8,0,0,1-.254-1.113A4.031,4.031,0,0,1,23.135.2a3.73,3.73,0,0,1-2.563-.884,2.859,2.859,0,0,1-1-2.241,2.987,2.987,0,0,1,1.255-2.563,5.916,5.916,0,0,1,3.53-.913h1.758v-.83a2.029,2.029,0,0,0-.566-1.509,2.276,2.276,0,0,0-1.67-.562,2.634,2.634,0,0,0-1.621.488A1.439,1.439,0,0,0,21.6-7.637H19.785a2.493,2.493,0,0,1,.562-1.528,3.832,3.832,0,0,1,1.523-1.167,5.125,5.125,0,0,1,2.114-.43,4.177,4.177,0,0,1,2.861.913A3.294,3.294,0,0,1,27.92-7.334v4.863a5.946,5.946,0,0,0,.371,2.314V0Zm-3-1.377a3.175,3.175,0,0,0,1.611-.439,2.658,2.658,0,0,0,1.1-1.143V-5.127H24.7q-3.32,0-3.32,1.943a1.645,1.645,0,0,0,.566,1.328A2.177,2.177,0,0,0,23.4-1.377ZM35.264-5.371a6.19,6.19,0,0,1,1.152-3.911,3.644,3.644,0,0,1,3.018-1.479,3.665,3.665,0,0,1,2.939,1.27V-15H44.18V0H42.52l-.088-1.133A3.679,3.679,0,0,1,39.414.2a3.609,3.609,0,0,1-2.993-1.5,6.26,6.26,0,0,1-1.157-3.926Zm1.807.205a4.687,4.687,0,0,0,.742,2.813,2.4,2.4,0,0,0,2.051,1.016,2.636,2.636,0,0,0,2.51-1.543V-7.734a2.656,2.656,0,0,0-2.49-1.494A2.411,2.411,0,0,0,37.813-8.2,5.16,5.16,0,0,0,37.07-5.166ZM51.367.2a4.617,4.617,0,0,1-3.5-1.411A5.237,5.237,0,0,1,46.523-4.99v-.332a6.341,6.341,0,0,1,.6-2.808,4.685,4.685,0,0,1,1.68-1.934,4.223,4.223,0,0,1,2.339-.7,3.957,3.957,0,0,1,3.2,1.357,5.877,5.877,0,0,1,1.143,3.887v.752H48.33a3.756,3.756,0,0,0,.913,2.524,2.87,2.87,0,0,0,2.222.962,3.147,3.147,0,0,0,1.621-.391,4.073,4.073,0,0,0,1.162-1.035l1.1.859A4.437,4.437,0,0,1,51.367.2Zm-.225-9.473a2.41,2.41,0,0,0-1.836.8,3.868,3.868,0,0,0-.918,2.231h5.293v-.137a3.441,3.441,0,0,0-.742-2.134A2.269,2.269,0,0,0,51.143-9.277Zm-102.5,26.906a6.19,6.19,0,0,1,1.152-3.911,3.644,3.644,0,0,1,3.018-1.479,3.665,3.665,0,0,1,2.939,1.27V8h1.807V23H-44.1l-.088-1.133A3.679,3.679,0,0,1-47.207,23.2a3.609,3.609,0,0,1-2.993-1.5,6.26,6.26,0,0,1-1.157-3.926Zm1.807.205a4.687,4.687,0,0,0,.742,2.813,2.4,2.4,0,0,0,2.051,1.016,2.636,2.636,0,0,0,2.51-1.543V15.266a2.656,2.656,0,0,0-2.49-1.494,2.411,2.411,0,0,0-2.07,1.025A5.16,5.16,0,0,0-49.551,17.834Zm14.3,5.361a4.617,4.617,0,0,1-3.5-1.411A5.237,5.237,0,0,1-40.1,18.01v-.332a6.341,6.341,0,0,1,.6-2.808,4.685,4.685,0,0,1,1.68-1.934,4.223,4.223,0,0,1,2.339-.7,3.957,3.957,0,0,1,3.2,1.357,5.877,5.877,0,0,1,1.143,3.887v.752h-7.158a3.756,3.756,0,0,0,.913,2.524,2.87,2.87,0,0,0,2.222.962,3.147,3.147,0,0,0,1.621-.391,4.073,4.073,0,0,0,1.162-1.035l1.1.859A4.437,4.437,0,0,1-35.254,23.2Zm-.225-9.473a2.41,2.41,0,0,0-1.836.8,3.868,3.868,0,0,0-.918,2.231h5.293v-.137a3.441,3.441,0,0,0-.742-2.134A2.269,2.269,0,0,0-35.479,13.723ZM-22.891,20.2a1.33,1.33,0,0,0-.552-1.138,5.311,5.311,0,0,0-1.924-.7,9.1,9.1,0,0,1-2.178-.7,3.1,3.1,0,0,1-1.191-.977,2.336,2.336,0,0,1-.386-1.348,2.741,2.741,0,0,1,1.1-2.2,4.291,4.291,0,0,1,2.808-.9,4.415,4.415,0,0,1,2.915.928,2.947,2.947,0,0,1,1.118,2.373H-23a1.631,1.631,0,0,0-.63-1.279,2.36,2.36,0,0,0-1.587-.537,2.47,2.47,0,0,0-1.543.43,1.353,1.353,0,0,0-.557,1.123,1.1,1.1,0,0,0,.518.986,6.368,6.368,0,0,0,1.87.635,9.744,9.744,0,0,1,2.192.723,3.2,3.2,0,0,1,1.245,1.011,2.485,2.485,0,0,1,.405,1.44,2.7,2.7,0,0,1-1.133,2.271,4.752,4.752,0,0,1-2.939.854,5.321,5.321,0,0,1-2.246-.449,3.653,3.653,0,0,1-1.528-1.255,3.025,3.025,0,0,1-.552-1.743h1.807a1.87,1.87,0,0,0,.728,1.44,2.822,2.822,0,0,0,1.792.532,2.913,2.913,0,0,0,1.646-.415A1.275,1.275,0,0,0-22.891,20.2Zm8.545,3a4.617,4.617,0,0,1-3.5-1.411,5.237,5.237,0,0,1-1.348-3.774v-.332a6.341,6.341,0,0,1,.6-2.808,4.685,4.685,0,0,1,1.68-1.934,4.223,4.223,0,0,1,2.339-.7,3.957,3.957,0,0,1,3.2,1.357,5.877,5.877,0,0,1,1.143,3.887v.752h-7.158a3.756,3.756,0,0,0,.913,2.524,2.87,2.87,0,0,0,2.222.962,3.147,3.147,0,0,0,1.621-.391,4.073,4.073,0,0,0,1.162-1.035l1.1.859A4.437,4.437,0,0,1-14.346,23.2Zm-.225-9.473a2.41,2.41,0,0,0-1.836.8,3.868,3.868,0,0,0-.918,2.231h5.293v-.137a3.441,3.441,0,0,0-.742-2.134A2.269,2.269,0,0,0-14.57,13.723Zm8.135-1.289.049,1.172a3.9,3.9,0,0,1,3.135-1.367,3.021,3.021,0,0,1,3.018,1.7,4,4,0,0,1,1.372-1.23,4.052,4.052,0,0,1,2-.469q3.477,0,3.535,3.682V23H4.863V16.027a2.426,2.426,0,0,0-.518-1.694,2.279,2.279,0,0,0-1.738-.562,2.4,2.4,0,0,0-1.67.6,2.436,2.436,0,0,0-.771,1.616V23H-1.65V16.076a2.016,2.016,0,0,0-2.256-2.3,2.417,2.417,0,0,0-2.432,1.514V23H-8.145V12.434Zm24.756,5.4a6.327,6.327,0,0,1-1.1,3.887A3.537,3.537,0,0,1,14.229,23.2,3.875,3.875,0,0,1,11.2,21.975v5.088H9.395V12.434h1.65l.088,1.172A3.722,3.722,0,0,1,14.2,12.238a3.6,3.6,0,0,1,3.013,1.436,6.4,6.4,0,0,1,1.108,3.994Zm-1.807-.205a4.669,4.669,0,0,0-.762-2.822,2.454,2.454,0,0,0-2.09-1.035A2.656,2.656,0,0,0,11.2,15.227v5.049a2.661,2.661,0,0,0,2.48,1.445,2.442,2.442,0,0,0,2.065-1.03A5.1,5.1,0,0,0,16.514,17.629ZM25,23.2a4.617,4.617,0,0,1-3.5-1.411,5.237,5.237,0,0,1-1.348-3.774v-.332a6.341,6.341,0,0,1,.6-2.808,4.685,4.685,0,0,1,1.68-1.934,4.223,4.223,0,0,1,2.339-.7,3.957,3.957,0,0,1,3.2,1.357,5.877,5.877,0,0,1,1.143,3.887v.752H21.963a3.756,3.756,0,0,0,.913,2.524,2.87,2.87,0,0,0,2.222.962,3.147,3.147,0,0,0,1.621-.391,4.073,4.073,0,0,0,1.162-1.035l1.1.859A4.437,4.437,0,0,1,25,23.2Zm-.225-9.473a2.41,2.41,0,0,0-1.836.8,3.868,3.868,0,0,0-.918,2.231h5.293v-.137a3.441,3.441,0,0,0-.742-2.134A2.269,2.269,0,0,0,24.775,13.723Zm8.145-1.289.059,1.328a3.851,3.851,0,0,1,3.164-1.523q3.35,0,3.379,3.779V23H37.715V16.008a2.432,2.432,0,0,0-.522-1.689,2.094,2.094,0,0,0-1.6-.547,2.607,2.607,0,0,0-1.543.469,3.183,3.183,0,0,0-1.035,1.23V23H31.211V12.434ZM38.9,8.313a2.428,2.428,0,0,1-.6,1.709,1.951,1.951,0,0,1-1.5.654,2.2,2.2,0,0,1-.693-.1,3.741,3.741,0,0,1-.767-.4,3.32,3.32,0,0,0-.684-.366,1.673,1.673,0,0,0-.483-.063.9.9,0,0,0-.684.308,1.115,1.115,0,0,0-.283.786l-1.211-.068a2.549,2.549,0,0,1,.591-1.729,1.9,1.9,0,0,1,1.5-.684,1.821,1.821,0,0,1,.615.1,4.484,4.484,0,0,1,.742.381,4.367,4.367,0,0,0,.718.371,1.649,1.649,0,0,0,.552.088.874.874,0,0,0,.7-.332,1.165,1.165,0,0,0,.278-.771Zm2.871,9.307a6.241,6.241,0,0,1,.61-2.793,4.553,4.553,0,0,1,1.7-1.914,4.626,4.626,0,0,1,2.485-.674,4.456,4.456,0,0,1,3.491,1.494,5.748,5.748,0,0,1,1.333,3.975v.127A6.3,6.3,0,0,1,50.8,20.6a4.486,4.486,0,0,1-1.689,1.909,4.679,4.679,0,0,1-2.524.684A4.445,4.445,0,0,1,43.1,21.7a5.719,5.719,0,0,1-1.333-3.955Zm1.816.215a4.52,4.52,0,0,0,.815,2.822,2.763,2.763,0,0,0,4.37-.015,4.943,4.943,0,0,0,.811-3.022,4.513,4.513,0,0,0-.825-2.817,2.623,2.623,0,0,0-2.192-1.079A2.594,2.594,0,0,0,44.4,14.787,4.906,4.906,0,0,0,43.584,17.834Z" transform="translate(1206.202 10051.709)" fill="#12263f"/>
    <path id="Trazado_603589" data-name="Trazado 603589" d="M-33.511-6.279h-5.967V0h-1.875V-14.219h8.809v1.533h-6.934v4.873h5.967ZM-28.618,0h-1.807V-10.566h1.807Zm-1.953-13.369a1.078,1.078,0,0,1,.269-.742,1.008,1.008,0,0,1,.8-.3,1.024,1.024,0,0,1,.8.3,1.067,1.067,0,0,1,.273.742,1.032,1.032,0,0,1-.273.732,1.043,1.043,0,0,1-.8.293,1.026,1.026,0,0,1-.8-.293A1.043,1.043,0,0,1-30.571-13.369ZM-19.2,0a3.8,3.8,0,0,1-.254-1.113A4.031,4.031,0,0,1-22.466.2a3.73,3.73,0,0,1-2.563-.884,2.859,2.859,0,0,1-1-2.241,2.987,2.987,0,0,1,1.255-2.563,5.916,5.916,0,0,1,3.53-.913h1.758v-.83a2.029,2.029,0,0,0-.566-1.509,2.276,2.276,0,0,0-1.67-.562,2.634,2.634,0,0,0-1.621.488A1.439,1.439,0,0,0-24-7.637h-1.816a2.493,2.493,0,0,1,.562-1.528,3.832,3.832,0,0,1,1.523-1.167,5.125,5.125,0,0,1,2.114-.43,4.177,4.177,0,0,1,2.861.913,3.294,3.294,0,0,1,1.074,2.515v4.863A5.946,5.946,0,0,0-17.31-.156V0Zm-3-1.377a3.175,3.175,0,0,0,1.611-.439,2.658,2.658,0,0,0,1.1-1.143V-5.127H-20.9q-3.32,0-3.32,1.943a1.645,1.645,0,0,0,.566,1.328A2.177,2.177,0,0,0-22.2-1.377ZM-5.9-5.166A6.283,6.283,0,0,1-7.017-1.274,3.557,3.557,0,0,1-10,.2a3.683,3.683,0,0,1-3.1-1.416L-13.188,0h-1.66V-15h1.807v5.6a3.663,3.663,0,0,1,3.018-1.357A3.579,3.579,0,0,1-7-9.307,6.471,6.471,0,0,1-5.9-5.322ZM-7.71-5.371a4.882,4.882,0,0,0-.713-2.852,2.36,2.36,0,0,0-2.051-1.006,2.652,2.652,0,0,0-2.568,1.66V-3a2.727,2.727,0,0,0,2.588,1.66A2.347,2.347,0,0,0-8.433-2.344,5.192,5.192,0,0,0-7.71-5.371ZM-1.665,0H-3.472V-10.566h1.807ZM-3.618-13.369a1.078,1.078,0,0,1,.269-.742,1.008,1.008,0,0,1,.8-.3,1.024,1.024,0,0,1,.8.3,1.067,1.067,0,0,1,.273.742,1.032,1.032,0,0,1-.273.732,1.043,1.043,0,0,1-.8.293,1.026,1.026,0,0,1-.8-.293A1.043,1.043,0,0,1-3.618-13.369ZM3.188,0H1.382V-15H3.188ZM8.042,0H6.235V-10.566H8.042ZM6.089-13.369a1.078,1.078,0,0,1,.269-.742,1.008,1.008,0,0,1,.8-.3,1.024,1.024,0,0,1,.8.3,1.067,1.067,0,0,1,.273.742,1.032,1.032,0,0,1-.273.732,1.043,1.043,0,0,1-.8.293,1.026,1.026,0,0,1-.8-.293A1.043,1.043,0,0,1,6.089-13.369Zm4.4,8a6.19,6.19,0,0,1,1.152-3.911,3.644,3.644,0,0,1,3.018-1.479A3.665,3.665,0,0,1,17.6-9.492V-15h1.807V0h-1.66l-.088-1.133A3.679,3.679,0,0,1,14.644.2a3.609,3.609,0,0,1-2.993-1.5,6.26,6.26,0,0,1-1.157-3.926Zm1.807.205a4.687,4.687,0,0,0,.742,2.813,2.4,2.4,0,0,0,2.051,1.016A2.636,2.636,0,0,0,17.6-2.881V-7.734a2.656,2.656,0,0,0-2.49-1.494A2.411,2.411,0,0,0,13.042-8.2,5.16,5.16,0,0,0,12.3-5.166ZM28.735,0a3.8,3.8,0,0,1-.254-1.113A4.031,4.031,0,0,1,25.474.2,3.73,3.73,0,0,1,22.91-.688a2.859,2.859,0,0,1-1-2.241,2.987,2.987,0,0,1,1.255-2.563,5.916,5.916,0,0,1,3.53-.913h1.758v-.83a2.029,2.029,0,0,0-.566-1.509,2.276,2.276,0,0,0-1.67-.562,2.634,2.634,0,0,0-1.621.488,1.439,1.439,0,0,0-.654,1.182H22.124a2.493,2.493,0,0,1,.562-1.528,3.832,3.832,0,0,1,1.523-1.167,5.125,5.125,0,0,1,2.114-.43,4.177,4.177,0,0,1,2.861.913,3.294,3.294,0,0,1,1.074,2.515v4.863A5.946,5.946,0,0,0,30.63-.156V0Zm-3-1.377a3.175,3.175,0,0,0,1.611-.439,2.658,2.658,0,0,0,1.1-1.143V-5.127H27.036q-3.32,0-3.32,1.943a1.645,1.645,0,0,0,.566,1.328A2.177,2.177,0,0,0,25.737-1.377Zm6.914-3.994A6.19,6.19,0,0,1,33.8-9.282a3.644,3.644,0,0,1,3.018-1.479,3.665,3.665,0,0,1,2.939,1.27V-15h1.807V0h-1.66l-.088-1.133A3.679,3.679,0,0,1,36.8.2a3.609,3.609,0,0,1-2.993-1.5,6.26,6.26,0,0,1-1.157-3.926Zm1.807.205A4.687,4.687,0,0,0,35.2-2.354a2.4,2.4,0,0,0,2.051,1.016,2.636,2.636,0,0,0,2.51-1.543V-7.734a2.656,2.656,0,0,0-2.49-1.494A2.411,2.411,0,0,0,35.2-8.2,5.16,5.16,0,0,0,34.458-5.166Z" transform="translate(1144.263 9708.068)" fill="#12263f"/>
    <path id="Trazado_603590" data-name="Trazado 603590" d="M-39.043-6.338a8.817,8.817,0,0,1-3.511-1.7,3.256,3.256,0,0,1-1.1-2.5,3.439,3.439,0,0,1,1.343-2.778,5.337,5.337,0,0,1,3.491-1.1,5.825,5.825,0,0,1,2.612.566,4.3,4.3,0,0,1,1.777,1.563,4,4,0,0,1,.63,2.178h-1.885a2.6,2.6,0,0,0-.82-2.034,3.336,3.336,0,0,0-2.314-.74,3.415,3.415,0,0,0-2.163.611,2.04,2.04,0,0,0-.776,1.7A1.835,1.835,0,0,0-41.021-9.1,7.232,7.232,0,0,0-38.511-8a11.645,11.645,0,0,1,2.773,1.1,4.209,4.209,0,0,1,1.484,1.4,3.577,3.577,0,0,1,.483,1.885A3.322,3.322,0,0,1-35.117-.845,5.746,5.746,0,0,1-38.721.2a6.683,6.683,0,0,1-2.734-.562A4.6,4.6,0,0,1-43.413-1.9,3.754,3.754,0,0,1-44.1-4.121h1.885a2.449,2.449,0,0,0,.952,2.036,4.009,4.009,0,0,0,2.544.747,3.685,3.685,0,0,0,2.275-.605,1.967,1.967,0,0,0,.791-1.65,1.931,1.931,0,0,0-.732-1.616A8.444,8.444,0,0,0-39.043-6.338ZM-27.266.2a4.617,4.617,0,0,1-3.5-1.411A5.237,5.237,0,0,1-32.109-4.99v-.332a6.341,6.341,0,0,1,.6-2.808,4.685,4.685,0,0,1,1.68-1.934,4.223,4.223,0,0,1,2.339-.7,3.957,3.957,0,0,1,3.2,1.357,5.877,5.877,0,0,1,1.143,3.887v.752H-30.3a3.756,3.756,0,0,0,.913,2.524,2.87,2.87,0,0,0,2.222.962,3.147,3.147,0,0,0,1.621-.391,4.073,4.073,0,0,0,1.162-1.035l1.1.859A4.437,4.437,0,0,1-27.266.2Zm-.225-9.473a2.41,2.41,0,0,0-1.836.8,3.868,3.868,0,0,0-.918,2.231h5.293v-.137a3.441,3.441,0,0,0-.742-2.134A2.269,2.269,0,0,0-27.49-9.277Zm6.006,3.906A6.21,6.21,0,0,1-20.342-9.3a3.654,3.654,0,0,1,3.027-1.46A3.635,3.635,0,0,1-14.3-9.395l.088-1.172h1.65V-.254a4.3,4.3,0,0,1-1.216,3.232A4.487,4.487,0,0,1-17.041,4.16a5.435,5.435,0,0,1-2.236-.488,3.85,3.85,0,0,1-1.67-1.338l.938-1.084a3.533,3.533,0,0,0,2.842,1.436,2.768,2.768,0,0,0,2.056-.742,2.837,2.837,0,0,0,.737-2.09v-.908A3.713,3.713,0,0,1-17.334.2a3.609,3.609,0,0,1-3-1.494A6.529,6.529,0,0,1-21.484-5.371Zm1.816.205a4.738,4.738,0,0,0,.732,2.808,2.38,2.38,0,0,0,2.051,1.021,2.646,2.646,0,0,0,2.51-1.553V-7.715a2.677,2.677,0,0,0-2.49-1.514A2.4,2.4,0,0,0-18.926-8.2,5.16,5.16,0,0,0-19.668-5.166ZM-3.311-1.045A3.837,3.837,0,0,1-6.406.2,3.285,3.285,0,0,1-8.979-.786a4.248,4.248,0,0,1-.894-2.905v-6.875h1.807V-3.74q0,2.4,1.953,2.4A2.7,2.7,0,0,0-3.359-2.881v-7.686h1.807V0H-3.271ZM6.3-8.945a5.414,5.414,0,0,0-.889-.068A2.381,2.381,0,0,0,3-7.5V0H1.191V-10.566H2.949l.029,1.221A2.813,2.813,0,0,1,5.5-10.762a1.846,1.846,0,0,1,.8.137ZM9.922,0H8.115V-10.566H9.922ZM7.969-13.369a1.078,1.078,0,0,1,.269-.742,1.008,1.008,0,0,1,.8-.3,1.024,1.024,0,0,1,.8.3,1.067,1.067,0,0,1,.273.742,1.032,1.032,0,0,1-.273.732,1.043,1.043,0,0,1-.8.293,1.026,1.026,0,0,1-.8-.293A1.043,1.043,0,0,1,7.969-13.369Zm4.4,8a6.19,6.19,0,0,1,1.152-3.911,3.644,3.644,0,0,1,3.018-1.479,3.665,3.665,0,0,1,2.939,1.27V-15h1.807V0h-1.66l-.088-1.133A3.679,3.679,0,0,1,16.523.2a3.609,3.609,0,0,1-2.993-1.5,6.26,6.26,0,0,1-1.157-3.926Zm1.807.205a4.687,4.687,0,0,0,.742,2.813,2.4,2.4,0,0,0,2.051,1.016,2.636,2.636,0,0,0,2.51-1.543V-7.734a2.656,2.656,0,0,0-2.49-1.494A2.411,2.411,0,0,0,14.922-8.2,5.16,5.16,0,0,0,14.18-5.166ZM30.615,0a3.8,3.8,0,0,1-.254-1.113A4.031,4.031,0,0,1,27.354.2,3.73,3.73,0,0,1,24.79-.688a2.859,2.859,0,0,1-1-2.241,2.987,2.987,0,0,1,1.255-2.563,5.916,5.916,0,0,1,3.53-.913h1.758v-.83a2.029,2.029,0,0,0-.566-1.509,2.276,2.276,0,0,0-1.67-.562,2.634,2.634,0,0,0-1.621.488,1.439,1.439,0,0,0-.654,1.182H24a2.493,2.493,0,0,1,.562-1.528,3.832,3.832,0,0,1,1.523-1.167,5.125,5.125,0,0,1,2.114-.43,4.177,4.177,0,0,1,2.861.913,3.294,3.294,0,0,1,1.074,2.515v4.863A5.946,5.946,0,0,0,32.51-.156V0Zm-3-1.377a3.175,3.175,0,0,0,1.611-.439,2.658,2.658,0,0,0,1.1-1.143V-5.127H28.916q-3.32,0-3.32,1.943a1.645,1.645,0,0,0,.566,1.328A2.177,2.177,0,0,0,27.617-1.377Zm6.914-3.994a6.19,6.19,0,0,1,1.152-3.911A3.644,3.644,0,0,1,38.7-10.762a3.665,3.665,0,0,1,2.939,1.27V-15h1.807V0h-1.66L41.7-1.133A3.679,3.679,0,0,1,38.682.2a3.609,3.609,0,0,1-2.993-1.5,6.26,6.26,0,0,1-1.157-3.926Zm1.807.205a4.687,4.687,0,0,0,.742,2.813,2.4,2.4,0,0,0,2.051,1.016,2.636,2.636,0,0,0,2.51-1.543V-7.734a2.656,2.656,0,0,0-2.49-1.494A2.411,2.411,0,0,0,37.08-8.2,5.16,5.16,0,0,0,36.338-5.166Z" transform="translate(1358.174 9885.945)" fill="#12263f"/>
    <path id="Trazado_603591" data-name="Trazado 603591" d="M-35.029-14.219v9.668A4.535,4.535,0,0,1-36.294-1.26,5.1,5.1,0,0,1-39.7.176l-.5.02a5.322,5.322,0,0,1-3.721-1.26,4.505,4.505,0,0,1-1.406-3.467v-9.687h1.855V-4.59a3.252,3.252,0,0,0,.85,2.4,3.265,3.265,0,0,0,2.422.854,3.287,3.287,0,0,0,2.437-.85,3.246,3.246,0,0,0,.845-2.393v-9.639ZM-26.2-2.8a1.33,1.33,0,0,0-.552-1.138,5.311,5.311,0,0,0-1.924-.7,9.1,9.1,0,0,1-2.178-.7,3.1,3.1,0,0,1-1.191-.977,2.336,2.336,0,0,1-.386-1.348,2.741,2.741,0,0,1,1.1-2.2,4.291,4.291,0,0,1,2.808-.9,4.415,4.415,0,0,1,2.915.928,2.947,2.947,0,0,1,1.118,2.373h-1.816a1.631,1.631,0,0,0-.63-1.279,2.36,2.36,0,0,0-1.587-.537,2.47,2.47,0,0,0-1.543.43,1.353,1.353,0,0,0-.557,1.123,1.1,1.1,0,0,0,.518.986,6.368,6.368,0,0,0,1.87.635,9.744,9.744,0,0,1,2.192.723A3.2,3.2,0,0,1-24.8-4.37a2.485,2.485,0,0,1,.405,1.44A2.7,2.7,0,0,1-25.527-.659,4.752,4.752,0,0,1-28.467.2a5.321,5.321,0,0,1-2.246-.449,3.653,3.653,0,0,1-1.528-1.255,3.025,3.025,0,0,1-.552-1.743h1.807a1.87,1.87,0,0,0,.728,1.44,2.822,2.822,0,0,0,1.792.532,2.913,2.913,0,0,0,1.646-.415A1.275,1.275,0,0,0-26.2-2.8ZM-15.518,0a3.8,3.8,0,0,1-.254-1.113A4.031,4.031,0,0,1-18.779.2a3.73,3.73,0,0,1-2.563-.884,2.859,2.859,0,0,1-1-2.241,2.987,2.987,0,0,1,1.255-2.563,5.916,5.916,0,0,1,3.53-.913H-15.8v-.83a2.029,2.029,0,0,0-.566-1.509,2.276,2.276,0,0,0-1.67-.562,2.634,2.634,0,0,0-1.621.488,1.439,1.439,0,0,0-.654,1.182h-1.816a2.493,2.493,0,0,1,.562-1.528,3.832,3.832,0,0,1,1.523-1.167,5.125,5.125,0,0,1,2.114-.43,4.177,4.177,0,0,1,2.861.913,3.294,3.294,0,0,1,1.074,2.515v4.863a5.946,5.946,0,0,0,.371,2.314V0Zm-3-1.377A3.175,3.175,0,0,0-16.9-1.816a2.658,2.658,0,0,0,1.1-1.143V-5.127h-1.416q-3.32,0-3.32,1.943a1.645,1.645,0,0,0,.566,1.328A2.177,2.177,0,0,0-18.516-1.377Zm16.3-3.789A6.283,6.283,0,0,1-3.33-1.274,3.557,3.557,0,0,1-6.318.2a3.683,3.683,0,0,1-3.1-1.416L-9.5,0h-1.66V-15h1.807v5.6a3.663,3.663,0,0,1,3.018-1.357A3.579,3.579,0,0,1-3.315-9.307a6.471,6.471,0,0,1,1.1,3.984Zm-1.807-.205a4.882,4.882,0,0,0-.713-2.852A2.36,2.36,0,0,0-6.787-9.229a2.652,2.652,0,0,0-2.568,1.66V-3a2.727,2.727,0,0,0,2.588,1.66A2.347,2.347,0,0,0-4.746-2.344,5.192,5.192,0,0,0-4.023-5.371ZM2.021,0H.215V-10.566H2.021ZM.068-13.369a1.078,1.078,0,0,1,.269-.742,1.008,1.008,0,0,1,.8-.3,1.024,1.024,0,0,1,.8.3,1.067,1.067,0,0,1,.273.742,1.032,1.032,0,0,1-.273.732,1.043,1.043,0,0,1-.8.293,1.026,1.026,0,0,1-.8-.293A1.043,1.043,0,0,1,.068-13.369ZM6.875,0H5.068V-15H6.875Zm4.854,0H9.922V-10.566h1.807ZM9.775-13.369a1.078,1.078,0,0,1,.269-.742,1.008,1.008,0,0,1,.8-.3,1.024,1.024,0,0,1,.8.3,1.067,1.067,0,0,1,.273.742,1.032,1.032,0,0,1-.273.732,1.043,1.043,0,0,1-.8.293,1.026,1.026,0,0,1-.8-.293A1.043,1.043,0,0,1,9.775-13.369Zm4.4,8a6.19,6.19,0,0,1,1.152-3.911,3.644,3.644,0,0,1,3.018-1.479,3.665,3.665,0,0,1,2.939,1.27V-15H23.1V0h-1.66l-.088-1.133A3.679,3.679,0,0,1,18.33.2a3.609,3.609,0,0,1-2.993-1.5A6.26,6.26,0,0,1,14.18-5.234Zm1.807.205a4.687,4.687,0,0,0,.742,2.813,2.4,2.4,0,0,0,2.051,1.016,2.636,2.636,0,0,0,2.51-1.543V-7.734A2.656,2.656,0,0,0,18.8-9.229,2.411,2.411,0,0,0,16.729-8.2,5.16,5.16,0,0,0,15.986-5.166ZM32.422,0a3.8,3.8,0,0,1-.254-1.113A4.031,4.031,0,0,1,29.16.2,3.73,3.73,0,0,1,26.6-.688a2.859,2.859,0,0,1-1-2.241,2.987,2.987,0,0,1,1.255-2.563,5.916,5.916,0,0,1,3.53-.913h1.758v-.83a2.029,2.029,0,0,0-.566-1.509,2.276,2.276,0,0,0-1.67-.562,2.634,2.634,0,0,0-1.621.488,1.439,1.439,0,0,0-.654,1.182H25.811a2.493,2.493,0,0,1,.562-1.528A3.832,3.832,0,0,1,27.9-10.332a5.125,5.125,0,0,1,2.114-.43,4.177,4.177,0,0,1,2.861.913,3.294,3.294,0,0,1,1.074,2.515v4.863a5.946,5.946,0,0,0,.371,2.314V0Zm-3-1.377a3.175,3.175,0,0,0,1.611-.439,2.658,2.658,0,0,0,1.1-1.143V-5.127H30.723q-3.32,0-3.32,1.943a1.645,1.645,0,0,0,.566,1.328A2.177,2.177,0,0,0,29.424-1.377Zm6.914-3.994A6.19,6.19,0,0,1,37.49-9.282a3.644,3.644,0,0,1,3.018-1.479,3.665,3.665,0,0,1,2.939,1.27V-15h1.807V0h-1.66l-.088-1.133A3.679,3.679,0,0,1,40.488.2a3.609,3.609,0,0,1-2.993-1.5,6.26,6.26,0,0,1-1.157-3.926Zm1.807.205a4.687,4.687,0,0,0,.742,2.813,2.4,2.4,0,0,0,2.051,1.016,2.636,2.636,0,0,0,2.51-1.543V-7.734a2.656,2.656,0,0,0-2.49-1.494A2.411,2.411,0,0,0,38.887-8.2,5.16,5.16,0,0,0,38.145-5.166Z" transform="translate(1077.584 9857.945)" fill="#12263f"/>
  </g>
</svg>
